<?xml version="1.0" encoding="UTF-8" standalone="no"?>
<svg
   xmlns:dc="http://purl.org/dc/elements/1.1/"
   xmlns:cc="http://creativecommons.org/ns#"
   xmlns:rdf="http://www.w3.org/1999/02/22-rdf-syntax-ns#"
   xmlns:svg="http://www.w3.org/2000/svg"
   xmlns="http://www.w3.org/2000/svg"
   xmlns:sodipodi="http://sodipodi.sourceforge.net/DTD/sodipodi-0.dtd"
   xmlns:inkscape="http://www.inkscape.org/namespaces/inkscape"
   width="56"
   height="56"
   viewBox="0 0 56 56"
   fill="none"
   version="1.1"
   id="svg6110"
   sodipodi:docname="ReachLogo_nobg.svg"
   inkscape:export-filename="/Users/danielrogers/Downloads/Group 219.png"
   inkscape:export-xdpi="877.71429"
   inkscape:export-ydpi="877.71429"
   inkscape:version="1.0.2 (e86c8708, 2021-01-15)">
  <metadata
     id="metadata6116">
    <rdf:RDF>
      <cc:Work
         rdf:about="">
        <dc:format>image/svg+xml</dc:format>
        <dc:type
           rdf:resource="http://purl.org/dc/dcmitype/StillImage" />
        <dc:title></dc:title>
      </cc:Work>
    </rdf:RDF>
  </metadata>
  <defs
     id="defs6114" />
  <sodipodi:namedview
     pagecolor="#ffffff"
     bordercolor="#666666"
     borderopacity="1"
     objecttolerance="10"
     gridtolerance="10"
     guidetolerance="10"
     inkscape:pageopacity="0"
     inkscape:pageshadow="2"
     inkscape:window-width="1792"
     inkscape:window-height="1075"
     id="namedview6112"
     showgrid="false"
     inkscape:zoom="12.227515"
     inkscape:cx="14.367441"
     inkscape:cy="31.565468"
     inkscape:window-x="379"
     inkscape:window-y="1463"
     inkscape:window-maximized="0"
     inkscape:current-layer="svg6110"
     inkscape:pagecheckerboard="true" />
  <path
     d="M 3.0871703,37.792382 2.9229786,19.115847 C 2.897578,16.226646 4.4208245,13.543312 6.9189227,12.076815 L 23.066917,2.5968414 c 2.498098,-1.4665551 5.591553,-1.4935615 8.114982,-0.070854 l 16.31219,9.1965616 c 2.523525,1.422705 4.093711,4.078978 4.119041,6.968275 l 0.164263,18.67644 c 0.02542,2.889297 -1.497842,5.572535 -3.99594,7.039127 L 31.63343,53.886365 c -2.4981,1.466497 -5.591554,1.493557 -8.114982,0.07075 L 7.2062578,44.760657 C 4.6827524,43.337954 3.1125716,40.681679 3.0871703,37.792382 Z"
     fill="#ffffff"
     id="path6102"
     style="stroke-width:0.957828;fill:#ffffff;fill-opacity:1" />
  <path
     d="m 28.8971,31.2335 c -0.0132,-1.5109 0.7806,-2.914 2.0824,-3.6809 l 14.0249,-8.262 c 0.935,-0.5508 2.1157,0.1171 2.1252,1.2023 l 0.1426,16.2769 c 0.0132,1.5109 -0.7806,2.914 -2.0824,3.6809 l -14.0249,8.262 c -0.935,0.5508 -2.1156,-0.1172 -2.1252,-1.2023 z"
     fill="#264fbb"
     id="path6104"
     style="fill:#12266e;fill-opacity:1" />
  <path
     d="m 29.569,25.1113 c -1.3128,0.7734 -2.9401,0.7807 -4.2599,0.0193 L 11.45354,17.1369 C 10.52273,16.5998 10.511,15.2605 11.43226,14.7073 L 25.1457,6.47199 C 26.4519,5.68757 28.0791,5.66644 29.4053,6.41668 L 43.552,14.4199 c 0.9445,0.5343 0.9564,1.8907 0.0214,2.4415 z"
     fill="#264fbb"
     id="path6106"
     style="fill:#12266e;fill-opacity:1" />
  <path
     style="fill:#12266e;fill-opacity:1;stroke-width:0.106939"
     d="m 29.207612,55.680047 c 0.445835,-0.109697 1.071429,-0.315792 1.390208,-0.45799 0.660553,-0.294653 17.380633,-9.732132 18.276644,-10.316066 1.721737,-1.122063 2.974371,-2.889843 3.541825,-4.998403 0.222479,-0.826693 0.233533,-1.149121 0.328119,-9.571049 0.05384,-4.793544 0.08164,-9.798294 0.06178,-11.121665 -0.03568,-2.377875 -0.04006,-2.417617 -0.373444,-3.3844 C 51.855626,14.156867 50.879077,12.745796 49.642503,11.798696 48.819515,11.168364 31.675668,1.0711762 30.803131,0.70289789 29.702198,0.23821794 28.485198,0.0357737 27.168008,0.09820598 25.161126,0.19332831 25.047698,0.24781247 14.955496,5.9643969 10.018193,8.7610621 5.7050063,11.273764 5.3353603,11.568729 c -1.275634,1.017912 -2.404997,2.729589 -2.822335,4.277564 -0.275898,1.023349 -0.349418,3.6206 -0.387471,13.688203 l -0.03557,9.41064 0.24596,0.849461 c 0.492401,1.700585 1.602543,3.385928 2.874334,4.363624 0.836255,0.642876 17.9708057,10.735122 18.8699777,11.114412 1.513609,0.638472 3.535368,0.79912 5.127355,0.407414 z M 25.402707,52.876938 C 24.366011,52.508995 7.4292833,42.526246 6.6424763,41.819387 c -0.725426,-0.651712 -1.33214,-1.578968 -1.630707,-2.49225 -0.221488,-0.677507 -0.22916,-0.864574 -0.213022,-5.19426 0.0092,-2.470293 0.04545,-7.234429 0.08053,-10.58697 0.07059,-6.744755 0.08718,-6.924983 0.754462,-8.194827 0.764096,-1.454075 0.831497,-1.498639 10.6735547,-7.057095 4.901656,-2.7682862 9.159931,-5.1053197 9.517579,-5.2234534 1.420021,-0.4690413 3.030897,-0.3572018 4.313594,0.2994835 0.336157,0.1720981 4.461002,2.5826603 9.166322,5.3568049 8.814398,5.196759 9.172487,5.432686 9.896132,6.520049 0.38742,0.582144 0.732984,1.48669 0.857052,2.243413 0.134933,0.822993 -0.07737,20.862858 -0.228999,21.615263 -0.275145,1.365355 -1.153893,2.676038 -2.316696,3.455431 -0.691141,0.46325 -16.442815,9.39967 -17.682734,10.03197 -1.344364,0.685562 -2.996721,0.791564 -4.426837,0.283992 z"
     id="path6961" />
</svg>
