<?xml version="1.0" encoding="UTF-8" standalone="no"?>
<!-- Created with Inkscape (http://www.inkscape.org/) -->

<svg
   width="192.21326mm"
   height="230.51453mm"
   viewBox="0 0 192.21326 230.51453"
   version="1.1"
   id="svg913"
   sodipodi:docname="heraldic-red-black.svg"
   inkscape:version="1.1.2 (0a00cf5339, 2022-02-04)"
   xmlns:inkscape="http://www.inkscape.org/namespaces/inkscape"
   xmlns:sodipodi="http://sodipodi.sourceforge.net/DTD/sodipodi-0.dtd"
   xmlns="http://www.w3.org/2000/svg"
   xmlns:svg="http://www.w3.org/2000/svg">
  <sodipodi:namedview
     id="namedview915"
     pagecolor="#ffffff"
     bordercolor="#666666"
     borderopacity="1.0"
     inkscape:pageshadow="2"
     inkscape:pageopacity="0.0"
     inkscape:pagecheckerboard="0"
     inkscape:document-units="mm"
     showgrid="false"
     inkscape:zoom="0.73228114"
     inkscape:cx="279.94712"
     inkscape:cy="381.00121"
     inkscape:window-width="1920"
     inkscape:window-height="1007"
     inkscape:window-x="0"
     inkscape:window-y="0"
     inkscape:window-maximized="1"
     inkscape:current-layer="layer1" />
  <defs
     id="defs910" />
  <g
     inkscape:label="Layer 1"
     inkscape:groupmode="layer"
     id="layer1"
     transform="translate(-8.3032379,-24.317604)">
    <path
       style="fill:#000000;stroke-width:0.241232"
       d="M 101.74949,254.52931 C 84.095662,247.17712 66.759864,237.11933 53.503024,226.53791 40.123618,215.85868 29.703879,203.99525 22.165358,190.85834 16.0378,180.18023 11.635573,168.08737 9.6355836,156.43925 8.0553846,147.23601 8.1695186,152.49027 8.0910586,85.336024 l -0.07123,-60.971471 h 96.2621614 96.26216 l -0.0775,60.971471 c -0.0708,55.719456 -0.11272,61.231216 -0.48671,63.986876 -0.72135,5.31514 -1.61306,10.152 -2.59232,14.06151 -4.03706,16.11712 -11.59487,30.83815 -22.69035,44.1961 -2.97954,3.58708 -12.6259,13.13078 -16.62007,16.44318 -12.81576,10.62821 -28.39867,20.27006 -44.38675,27.4641 -2.92582,1.31651 -9.40804,3.98486 -9.62372,3.96152 -0.0804,-0.009 -1.12318,-0.4227 -2.31728,-0.92 z m 6.63389,-1.40763 c 17.14089,-7.08482 35.48036,-18.10781 49.33201,-29.65117 6.27318,-5.22779 14.86819,-14.09823 19.60395,-20.23218 2.30283,-2.98271 6.85926,-9.8014 8.6241,-12.90593 6.09118,-10.71505 10.55063,-23.185 12.52847,-35.03335 1.53385,-9.18865 1.41924,-3.8765 1.51211,-70.083636 l 0.0847,-60.368397 H 104.29095 8.5131876 l 0.0034,57.473607 c 0.002,34.694746 0.09744,59.093076 0.240646,61.559716 1.8417214,31.72128 17.2550324,59.81023 44.9870114,81.98355 13.334043,10.66134 30.677123,20.79151 47.643395,27.82871 1.6985,0.7045 2.73161,1.00523 3.13602,0.91287 0.33169,-0.0757 2.06856,-0.74345 3.85971,-1.48379 z m -7.23697,-1.48951 C 92.449939,247.97804 82.483201,242.88971 74.249,237.90019 45.142496,220.2631 26.119937,198.98394 16.695808,173.51962 14.216292,166.81988 12.316194,159.06532 11.121561,150.7703 l -0.538506,-3.7391 -0.130307,-59.946236 c -0.07168,-32.970434 -0.09677,-60.027655 -0.0558,-60.127163 0.04103,-0.09951 42.29814,-0.180925 93.904762,-0.180925 h 93.83023 l -0.0776,60.127158 c -0.0852,66.039396 0.0315,60.698456 -1.51072,69.107426 -5.16126,28.14144 -20.57872,51.69267 -46.7236,71.37356 -9.7724,7.35629 -20.92358,14.12142 -32.43642,19.67832 -4.74049,2.2881 -12.69297,5.75301 -13.17727,5.74136 -0.15718,-0.004 -1.53416,-0.53142 -3.05995,-1.17253 z m 6.06519,-0.52359 c 16.59548,-6.93362 32.86565,-16.44692 45.79976,-26.77946 16.47042,-13.15757 28.14348,-27.67171 35.58515,-44.24611 4.64967,-10.35595 7.63414,-21.80086 8.83903,-33.89613 0.26177,-2.62771 0.32442,-14.41416 0.32442,-61.031776 V 27.379957 H 104.28243 10.804896 l 1.4e-5,58.136997 c 7e-6,53.937266 0.0307,58.407096 0.424939,61.876096 2.310157,20.32771 8.853586,37.08157 20.695244,52.9883 6.054293,8.13265 14.835238,17.04507 23.913567,24.2716 7.047581,5.61002 17.254964,12.30079 26.129777,17.12764 6.22712,3.38683 21.159143,10.49652 22.137003,10.54025 0.10167,0.005 1.49944,-0.54097 3.10616,-1.21226 z m -6.40241,-17.35982 C 79.45045,223.90057 61.080789,210.79046 48.99051,196.76667 37.426842,183.35371 30.671166,169.58848 27.718797,153.42385 26.33308,145.83685 26.364385,147.25021 26.364385,92.268884 V 41.732543 l 77.978355,0.06067 77.97835,0.06067 -0.0183,50.658791 c -0.02,55.542076 0.0473,52.719386 -1.45198,60.911156 -3.16152,17.27406 -11.34627,33.14576 -23.91329,46.37215 -9.71338,10.22302 -20.58749,18.5399 -35.16581,26.89597 -5.63532,3.23008 -16.55549,8.52744 -17.52328,8.50053 -0.18035,-0.005 -1.72803,-0.6547 -3.43929,-1.44374 z m 6.51941,-0.2842 c 4.13868,-1.81295 11.46609,-5.5696 15.64933,-8.02316 19.8756,-11.65745 34.00592,-24.09385 43.50378,-38.28858 8.29389,-12.39537 12.78911,-24.52151 14.91798,-40.24224 0.37042,-2.73541 0.4161,-7.73607 0.49195,-53.855116 l 0.0836,-50.839718 H 104.40521 26.835173 l 0.079,51.925258 c 0.08595,56.497116 -0.0088,52.412396 1.389171,59.885936 2.699784,14.43305 9.323594,28.33163 19.216917,40.32241 3.133353,3.79764 11.269216,11.95957 15.037458,15.08563 8.261074,6.85323 17.926341,13.2766 28.476778,18.92516 4.15901,2.22668 12.621593,6.30471 13.158083,6.34073 0.1496,0.0101 1.56081,-0.54629 3.13602,-1.23631 z m -6.28234,-59.43015 c -4.547452,-0.90318 -8.804083,-4.18365 -11.092857,-8.54894 -4.182801,-7.9777 -1.508707,-18.97439 6.811263,-28.00999 l 1.468724,-1.59504 -2.945982,-2.84998 c -1.620291,-1.56748 -4.543407,-4.4269 -6.495816,-6.35427 l -3.549826,-3.5043 -4.29022,4.22898 c -8.36978,8.25033 -13.25401,10.9329 -20.452787,11.23334 -3.347673,0.13971 -5.336967,-0.1929 -8.112736,-1.35645 -4.978652,-2.08696 -8.628197,-6.61304 -10.281304,-12.75062 -0.586146,-2.17622 -0.631031,-2.70323 -0.631031,-7.40876 0,-4.73896 0.04185,-5.22156 0.648428,-7.4782 0.356633,-1.32678 1.159116,-3.44359 1.783296,-4.70403 0.925438,-1.86878 1.515975,-2.67821 3.199949,-4.38605 1.754426,-1.779286 2.40909,-2.260386 4.351981,-3.198206 3.136855,-1.51414 5.112938,-1.89793 9.041417,-1.756 2.545592,0.092 3.52207,0.23755 5.186494,0.77331 5.55906,1.78938 10.131946,5.061156 16.824528,12.037466 l 2.712441,2.82743 6.612734,-6.33618 6.61274,-6.336186 -1.20727,-1.32094 c -4.213702,-4.61047 -7.342713,-9.98786 -8.54761,-14.6896 -0.797697,-3.11274 -0.840818,-7.21834 -0.105443,-10.039159 1.524256,-5.846905 5.028042,-9.726111 10.508557,-11.634534 1.74233,-0.606709 2.24633,-0.672013 5.1865,-0.672013 2.94016,0 3.44418,0.0653 5.18649,0.672013 4.21845,1.468946 7.27185,4.114587 9.22655,7.994417 4.11493,8.167616 1.58883,18.379936 -6.88855,27.848466 -0.82153,0.91757 -1.49369,1.76071 -1.49369,1.87364 0,0.11293 2.93272,3.000816 6.51714,6.417526 l 6.51714,6.21221 2.83062,-2.94202 c 8.79847,-9.144766 15.29709,-12.753646 22.96585,-12.753646 3.46654,0 5.71667,0.52268 8.51996,1.97908 4.93668,2.564756 8.20821,7.703806 9.25621,14.539996 0.55042,3.59052 0.32605,9.11713 -0.49969,12.30818 -1.85681,7.17555 -5.91027,11.62758 -12.44417,13.66778 -2.50067,0.78083 -7.59502,0.77879 -10.49361,-0.004 -5.30697,-1.43357 -9.94435,-4.5735 -16.50755,-11.17714 l -3.61161,-3.63385 -6.50906,6.33784 -6.50906,6.33784 1.57616,1.74027 c 8.36902,9.24042 10.94464,19.84788 6.78718,27.95232 -1.44172,2.81043 -4.40106,5.73449 -7.20038,7.11452 -3.28503,1.61947 -6.80034,2.07096 -10.4621,1.34368 z m 7.18651,-0.73291 c 5.20002,-1.25975 9.85008,-6.02403 11.39581,-11.67575 0.66984,-2.44916 0.57184,-6.71262 -0.22334,-9.7162 -1.30524,-4.93017 -4.92752,-10.98437 -8.82955,-14.75753 -0.54238,-0.52447 -0.98615,-1.07556 -0.98615,-1.22463 0,-0.14909 0.89558,-1.12853 1.99017,-2.17653 1.09458,-1.04801 4.13108,-3.99781 6.74777,-6.55511 2.61668,-2.5573 4.84246,-4.64964 4.94619,-4.64964 0.10372,0 1.97932,1.76608 4.16799,3.92463 5.72906,5.65019 9.44627,8.40748 13.54939,10.05045 4.82832,1.93335 9.28682,2.13173 13.77596,0.61295 4.71974,-1.5968 8.71874,-5.70707 10.42049,-10.71039 2.34491,-6.89432 1.96315,-15.17715 -0.97484,-21.15079 -4.2436,-8.628266 -14.31167,-11.649296 -23.96268,-7.190266 -3.98773,1.84245 -7.00469,4.158796 -12.43846,9.549946 -2.38329,2.36459 -4.395,4.29925 -4.47049,4.29925 -0.33281,0 -13.6371,-12.840206 -13.6909,-13.213336 -0.0332,-0.2302 0.69559,-1.27896 1.63032,-2.34615 6.493,-7.41301 9.5679,-14.92429 8.69759,-21.246238 -0.9494,-6.89649 -5.09485,-11.966699 -11.35343,-13.886117 -2.53618,-0.777813 -6.14818,-0.777813 -8.68437,0 -5.536189,1.697872 -9.496937,5.980972 -10.880411,11.765936 -0.702448,2.937259 -0.552606,6.963809 0.375452,10.089369 1.2962,4.36537 4.308129,9.33331 8.39268,13.84304 0.860679,0.95028 1.318339,1.64277 1.206659,1.82584 -0.099,0.16221 -3.110894,3.108086 -6.693195,6.546396 -3.5823,3.43831 -6.549454,6.33468 -6.593682,6.43637 -0.22137,0.509 -1.03878,-0.16962 -5.24628,-4.35544 -5.099438,-5.07318 -7.767235,-7.18226 -11.31834,-8.947916 -3.062134,-1.52254 -5.400191,-2.1738 -8.44313,-2.35179 -10.138376,-0.59302 -17.39064,6.211286 -18.710499,17.554776 -1.1893,10.22146 2.675652,19.18334 9.772795,22.66069 2.919842,1.43063 4.560202,1.78712 8.093392,1.75888 3.522994,-0.0282 5.652653,-0.5066 8.781486,-1.97281 3.915349,-1.8348 5.955751,-3.42847 11.880355,-9.27927 2.408256,-2.37825 4.490678,-4.28434 4.627604,-4.23574 0.283384,0.10057 1.231586,0.99231 8.54339,8.03461 2.88574,2.77938 5.246804,5.17387 5.246804,5.32107 0,0.14721 -0.391047,0.64175 -0.868995,1.09898 -2.380965,2.27778 -5.770685,7.06944 -7.219743,10.20572 -0.449871,0.9737 -1.113506,2.73653 -1.474749,3.91741 -0.58988,1.92832 -0.658336,2.52801 -0.671923,5.88617 -0.01416,3.50547 0.02735,3.85954 0.665106,5.66664 2.871728,8.13749 10.724654,12.55556 18.827754,10.59252 z m -6.15275,-6.9728 c -2.51876,-0.8084 -4.514662,-2.73892 -5.54006,-5.35855 -0.443894,-1.13403 -0.546021,-1.86854 -0.54613,-3.92781 -1.24e-4,-2.27613 0.0867,-2.78395 0.856305,-5.00858 0.471042,-1.36161 1.384179,-3.34862 2.029185,-4.41559 1.35058,-2.2341 4.75935,-6.25594 5.30233,-6.25594 0.20211,0 0.98593,0.66618 1.74183,1.4804 6.12766,6.60044 8.29217,14.15294 5.53998,19.33032 -1.81255,3.40975 -5.97038,5.25118 -9.38344,4.15575 z m 5.50299,-1.13224 c 1.35009,-0.67427 3.07077,-2.50178 3.75741,-3.99071 0.45112,-0.97819 0.52991,-1.57622 0.5326,-4.04279 0.003,-2.5539 -0.0763,-3.12205 -0.67163,-4.82465 -1.05812,-3.02616 -2.95947,-6.01846 -5.82471,-9.16683 l -1.09769,-1.20616 -1.41605,1.50842 c -4.294094,4.57424 -6.47683,9.57947 -6.253198,14.33921 0.13056,2.77868 0.838623,4.42723 2.615328,6.08913 2.43642,2.27899 5.45149,2.74593 8.35794,1.29438 z M 57.064707,130.63357 c -2.002949,-0.56512 -3.480844,-1.42939 -4.732582,-2.76761 -2.217085,-2.37024 -3.291902,-5.80906 -3.291902,-10.53229 0,-6.45316 2.081643,-11.0132 5.881422,-12.88383 4.345062,-2.13906 9.803479,-1.09436 14.985173,2.86805 2.140573,1.63687 10.011145,9.44384 10.011145,9.93023 0,0.56512 -7.442679,7.77183 -10.037574,9.71933 -3.452315,2.591 -6.224385,3.71799 -9.622864,3.91218 -1.282503,0.0733 -2.353504,-0.009 -3.192818,-0.24606 z m 6.328838,-0.88702 c 3.46939,-0.99345 6.333356,-3.04791 11.940906,-8.56575 l 3.980427,-3.91675 -3.739097,-3.77014 c -5.882209,-5.93102 -9.035228,-8.19104 -12.785314,-9.16425 -2.328107,-0.60419 -5.481538,-0.41182 -7.263939,0.44311 -3.580605,1.71746 -5.615256,5.62912 -5.919653,11.38069 -0.410176,7.75013 2.808217,13.17111 8.358942,14.07958 1.671514,0.27357 3.275448,0.12981 5.427728,-0.48649 z m 33.935598,-5.55198 c -3.738325,-3.6044 -6.79624,-6.72534 -6.795358,-6.93543 0.0021,-0.52363 13.120525,-13.28792 13.656495,-13.28792 0.23623,0 1.6834,1.22422 3.21593,2.7205 4.04034,3.94476 10.40134,9.93098 10.65223,10.02461 0.11851,0.0442 0.21546,0.21724 0.21546,0.38448 0,0.34111 -13.57741,13.6472 -13.92547,13.6472 -0.12228,0 -3.28095,-2.94904 -7.019287,-6.55344 z m 18.610487,-5.45347 1.64606,-1.67058 -0.80175,-0.66945 c -0.44096,-0.3682 -3.46299,-3.18902 -6.71561,-6.26848 l -5.91387,-5.59904 -6.503127,6.33455 -6.503126,6.33454 0.475992,0.53215 c 0.261796,0.29268 3.221393,3.18614 6.576888,6.42991 l 6.100893,5.89775 4.99579,-4.82539 c 2.74769,-2.65396 5.73652,-5.57715 6.64186,-6.49596 z m 29.77778,11.74591 c -2.57605,-0.60748 -5.79079,-2.43385 -8.88122,-5.04564 -2.735,-2.31141 -8.1893,-7.78437 -8.1893,-8.21731 0,-0.54973 8.99514,-9.34893 10.80936,-10.57389 7.62454,-5.14811 15.24849,-4.31681 18.23108,1.98786 1.24051,2.62222 1.65863,4.75893 1.68309,8.60097 0.0172,2.6962 -0.0804,3.88488 -0.42568,5.1865 -1.50682,5.68017 -4.82234,8.36201 -10.25904,8.29828 -1.13685,-0.0133 -2.47257,-0.11987 -2.96829,-0.23677 z m 5.78962,-0.56523 c 3.32923,-0.88626 5.77435,-3.50979 6.78417,-7.27919 0.85589,-3.19479 0.75451,-8.01139 -0.23806,-11.31086 -0.68849,-2.28864 -1.26702,-3.35439 -2.58676,-4.76529 -2.69868,-2.88511 -6.62854,-3.48734 -11.31725,-1.73431 -3.51766,1.31519 -5.50338,2.89215 -12.24157,9.72162 l -2.64953,2.68543 2.77014,2.79463 c 7.3496,7.41457 11.84448,10.17319 16.641,10.213 0.86242,0.007 2.13945,-0.13911 2.83786,-0.32503 z M 102.77586,91.848434 c -6.289196,-7.36157 -8.301206,-14.16955 -5.731168,-19.392379 2.387918,-4.852707 8.688028,-6.05162 12.709348,-2.418596 1.97055,1.780276 3.16684,5.295865 2.84444,8.359085 -0.30951,2.94078 -1.68519,6.39549 -3.79596,9.53273 -1.5327,2.27807 -4.07214,5.18649 -4.52848,5.18649 -0.22851,0 -0.90269,-0.57029 -1.49818,-1.26733 z m 2.77191,-0.72369 c 3.14404,-3.68015 5.38854,-7.60388 6.10567,-10.67367 1.7575,-7.523191 -3.29029,-13.485035 -9.78462,-11.556426 -1.90624,0.566092 -4.067097,2.784147 -4.78247,4.909066 -0.628659,1.86732 -0.693368,4.54487 -0.160886,6.65698 0.473633,1.87869 2.444426,5.85186 3.884086,7.83043 1.44837,1.99054 3.23556,4.10095 3.47288,4.10095 0.10044,0 0.66985,-0.5703 1.26534,-1.26733 z"
       id="path569" />
    <path
       style="fill:#000000;stroke-width:1.3656"
       d="m 100.17925,158.51846 c -0.924294,64.38087 -0.0486,129.08825 0.0206,193.59436 0.50458,71.42555 0.694,142.92628 2.10417,214.29898 11.59999,70.06221 43.66043,137.04433 93.72149,187.74538 54.31985,59.11954 124.44841,101.23516 197.0874,133.96547 11.52644,-2.43418 21.91995,-9.79241 32.82897,-14.39174 45.7637,-21.83646 88.522,-49.85669 127.62301,-82.07334 34.10154,-29.63176 66.02263,-62.64441 88.20912,-102.34112 25.08366,-43.63783 42.44821,-92.6869 45.30609,-143.17326 2.14899,-128.77387 1.87115,-257.57389 2.6658,-386.36049 -5.80508,-4.59414 -16.26514,-0.73704 -23.84991,-2.00838 -188.05303,0 -376.10605,0 -564.15907,0 l -1.2322,0.58867 z m 293.79512,70.85361 c 26.10276,-2.35547 50.94797,17.90638 57.48838,42.48283 8.28119,25.60555 -1.72873,52.78971 -15.58623,74.17918 -5.46746,9.31137 -13.88346,16.56286 -19.32181,25.80003 3.187,7.57463 11.62137,12.44726 16.87285,18.8169 10.88369,9.96038 20.84359,21.52239 32.45129,30.31788 24.5044,-21.7927 47.60894,-50.04247 81.65303,-56.61354 24.04076,-5.20717 52.53601,1.40339 67.49295,22.72702 17.38569,23.33944 17.35348,54.21463 12.70645,81.49033 -5.70341,28.54771 -30.98291,53.73103 -60.93437,53.50361 -26.58065,2.49022 -50.95244,-11.21936 -69.73738,-28.84184 -10.81594,-8.97626 -19.84611,-20.36007 -30.95397,-28.65187 -16.8749,15.06049 -32.69544,31.61098 -49.27347,47.13706 -0.10892,6.3975 7.93258,11.03359 11.17832,16.72477 19.11017,24.24899 33.74261,57.50525 22.77221,88.42877 -8.84728,25.22318 -35.24835,43.53112 -62.11594,40.39443 -30.14094,-2.34614 -53.79752,-30.93359 -54.27709,-60.1689 -2.11829,-31.43219 17.30713,-59.17979 37.00711,-82.50386 -0.653,-6.32534 -8.85993,-10.28806 -12.79683,-15.42731 -12.31034,-11.34211 -23.87223,-24.12533 -37.01274,-34.17955 -24.66766,20.72179 -46.48459,50.16505 -80.23143,56.09612 -23.79618,4.70278 -50.94003,-1.5198 -66.20738,-21.48681 -13.61762,-16.44987 -17.99013,-37.72717 -16.6826,-58.54971 -0.34732,-16.87195 2.08013,-34.22259 11.72512,-48.56981 13.59066,-23.84604 43.5682,-34.08346 69.83128,-28.50653 34.07655,5.76899 57.18981,34.22314 80.89554,56.69089 7.36273,-0.87439 12.19063,-10.76973 18.52876,-15.14228 10.86701,-11.15596 23.43949,-21.19093 33.23853,-33.04831 -17.18825,-21.59566 -36.23611,-44.81212 -37.70325,-73.72617 -2.57541,-24.06305 6.93707,-50.6353 29.23762,-62.26263 9.03096,-5.72035 19.00997,-7.96051 29.75505,-7.1107 z"
       id="path4418"
       transform="scale(0.26458333)" />
    <path
       style="fill:#000000;stroke-width:1.3656"
       d="m 224.36311,391.67793 c -20.61212,-0.57978 -35.3994,18.89348 -36.99111,38.02063 -2.13321,19.97199 -1.45451,45.30125 17.21931,57.60574 19.82826,13.21521 45.95254,3.37493 62.04126,-11.2955 11.76015,-10.51167 24.05343,-21.14185 34.0332,-33.11303 -15.25843,-15.43816 -30.326,-32.19334 -49.01208,-43.80842 -8.25432,-4.68693 -17.76055,-7.50253 -27.29058,-7.40942 z"
       id="path4457"
       transform="scale(0.26458333)" />
    <path
       style="fill:#000000;stroke-width:1.3656"
       d="m 392.12601,394.58782 c -15.7387,15.57779 -31.80727,30.83817 -47.2144,46.74231 -0.56442,5.81916 7.43595,9.05268 10.2553,13.65062 12.41456,12.46514 24.67509,25.15056 37.76459,36.89776 7.06589,-1.312 11.11493,-9.85384 17.01709,-13.77194 11.70178,-11.82817 24.96922,-22.66423 35.55301,-35.24548 -15.98107,-16.77276 -33.85128,-32.13058 -50.60706,-48.30528 -0.91891,0.0626 -1.94538,-1.29398 -2.76853,0.032 z"
       id="path4496"
       transform="scale(0.26458333)" />
    <path
       style="fill:#000000;stroke-width:1.3656"
       d="m 561.81462,391.54457 c -27.27167,0.71417 -46.00827,23.3084 -64.17312,40.63178 -5.07235,4.97162 -15.7056,11.78513 -4.8105,17.13842 18.96673,17.18809 37.23939,39.86456 64.06267,43.97735 21.87634,3.48312 42.78116,-15.00466 43.75507,-36.77774 2.45594,-20.91242 0.66293,-46.7344 -18.44887,-59.64612 -6.00586,-3.90535 -13.27019,-5.56948 -20.38525,-5.32369 z"
       id="path4535"
       transform="scale(0.26458333)" />
    <path
       style="fill:#000000;stroke-width:1.3656"
       d="m 393.27557,257.50815 c -23.307,1.34375 -36.31632,30.33388 -26.89851,50.36167 6.11665,15.59101 14.9901,30.68871 27.16789,42.20278 6.167,-1.28811 8.85919,-9.24977 13.09318,-13.43458 12.75138,-17.41549 24.64379,-41.86533 13.19721,-62.87875 -5.06146,-9.32612 -15.99172,-15.94936 -26.55977,-16.25112 z"
       id="path4574"
       transform="scale(0.26458333)" />
    <path
       style="fill:#000000;stroke-width:1.3656"
       d="m 392.56076,536.03366 c -16.79978,17.91741 -32.87729,42.019 -27.72266,67.76236 3.68566,17.98971 26.34196,32.22886 42.88557,20.65196 12.60845,-6.91642 18.93743,-21.69314 16.31389,-35.67636 -1.28519,-20.77553 -15.47402,-37.6706 -28.48422,-52.73796 -1.16487,-0.59853 -1.85814,-1.0401 -2.99258,0 z"
       id="path4613"
       transform="scale(0.26458333)" />
    <path
       style="fill:#ff0000;stroke-width:1.3656"
       d="m 40.093037,102.52903 c -1.032967,65.81589 -0.147674,131.95992 -0.442752,197.90203 0.360745,84.99449 -0.715639,170.02796 1.485619,254.99567 7.772818,86.43339 45.600328,169.05877 103.827986,233.13924 38.54066,43.70021 85.47448,78.98463 134.97197,109.32996 33.59323,20.47715 69.26812,37.39369 104.97809,53.80693 5.98142,3.23917 12.66446,3.60378 18.45955,-0.3574 101.71543,-43.82525 199.2539,-105.59267 266.39409,-195.30565 39.84589,-52.17751 64.08031,-114.87508 74.98161,-179.32136 5.29577,-23.63674 1.72953,-48.10133 2.83928,-72.12806 0.25977,-133.60082 0.51954,-267.20163 0.77931,-400.80245 -5.81373,-4.583657 -16.26408,-0.73386 -23.84991,-2.00305 -227.6224,0 -455.24481,0 -682.86721,0 l -1.232201,0.58867 z M 394.3131,159.38262 c 97.7699,0.1138 195.53979,0.2276 293.30968,0.3414 -0.60912,131.62154 0.3756,263.59263 -1.96036,395.00123 -6.35949,59.8613 -29.66134,118.1743 -65.76197,166.29062 -37.27614,48.43708 -84.70113,88.59839 -136.94217,120.3697 -28.23791,17.0514 -56.82363,33.60394 -87.71701,45.20612 -12.89247,-1.7146 -23.88843,-10.35932 -35.72443,-15.33 C 286.39499,834.30874 216.71547,785.74786 167.44951,719.29798 124.81822,661.82611 99.524519,590.81461 101.78506,518.90275 100.6592,398.95244 101.15357,278.99498 101.00607,159.04123 c 97.76901,0.1138 195.53803,0.22759 293.30703,0.34139 z"
       id="path4652"
       transform="scale(0.26458333)"
       inkscape:export-filename="/home/mydriasis/Desktop/2025-05-belt-plate-designs/path4652.png"
       inkscape:export-xdpi="96"
       inkscape:export-ydpi="96" />
    <path
       style="fill:#000000;stroke-width:1.3656"
       d="m 31.899463,92.969864 c -1.032967,65.815886 -0.147675,131.959916 -0.442752,197.902026 0.301766,89.05412 -0.588675,178.13836 1.402936,267.17133 7.901207,92.86481 51.566925,180.59294 115.895213,247.32841 60.79654,63.81287 137.19865,110.74818 216.88961,147.22092 9.71143,3.47903 19.13458,9.81822 29.48478,10.55251 49.15462,-17.69702 95.24077,-43.2615 139.08812,-71.4897 56.34286,-37.16529 108.13148,-82.60539 147.63364,-137.61714 38.82606,-54.71583 63.81448,-119.07645 72.47259,-185.56099 2.7317,-72.1117 1.91103,-144.32355 2.79356,-216.47834 0.55877,-85.92227 0.65327,-171.84637 0.74045,-257.770118 -5.81652,-4.58374 -16.26356,-0.733818 -23.84991,-2.003051 -233.51687,0 -467.03374,0 -700.550605,0 l -1.2322,0.588671 z M 394.03839,103.05447 c 117.70527,0 235.41055,0 353.11583,0 -0.63512,150.2099 0.003,300.43072 -1.61096,450.63325 -0.14376,30.85467 -9.48178,60.83572 -18.19454,90.12083 -28.48525,89.023 -92.02069,163.70843 -166.83035,218.14106 -51.08563,37.13495 -106.74377,68.36924 -165.52781,91.41491 -18.16549,-3.84764 -34.36739,-14.24886 -51.2555,-21.72763 C 247.63057,884.59369 156.72199,818.8922 99.539948,726.89643 68.09703,676.41957 48.397322,618.61408 42.60552,559.62753 39.644204,484.91557 41.45758,410.00031 40.919593,335.20307 c 6.25e-4,-77.38286 9.3e-5,-154.76573 2.7e-4,-232.1486 117.706167,0 235.412337,0 353.118527,0 z"
       id="path4767"
       transform="scale(0.26458333)"
       inkscape:export-filename="/home/mydriasis/Desktop/2025-05-belt-plate-designs/path4767.png"
       inkscape:export-xdpi="96"
       inkscape:export-ydpi="96" />
    <path
       style="fill:#ffffff;stroke-width:1.3656"
       d="m 391.94464,227.9718 c -29.33231,0.5732 -54.90685,25.41359 -57.50705,54.43446 -4.24494,32.00967 13.89634,61.39274 33.93186,84.66161 1.97167,2.67717 5.62953,6.00838 1.05086,8.40427 -15.02667,15.6723 -30.41213,31.2645 -46.84366,45.48608 -25.10686,-21.04981 -46.75193,-49.98053 -80.57673,-57.07748 -27.70639,-7.44939 -59.40529,5.02517 -73.22082,30.48837 -12.97047,22.33814 -13.45205,49.77582 -8.9964,74.57433 6.59712,28.11687 30.79564,52.63647 60.49696,54.13306 30.0496,2.31297 57.35323,-15.02178 77.62824,-35.66818 8.12072,-7.06351 15.93708,-16.17665 24.53005,-21.78819 16.76737,15.81168 34.52122,31.20195 49.00675,48.97742 -17.47643,20.5834 -35.23548,44.17069 -37.41786,72.01917 -0.71838,15.53417 0.88561,32.02574 11.1835,44.48587 10.9894,17.09475 31.03817,28.38644 51.58057,26.04234 27.26518,1.51915 49.13361,-21.95001 56.83492,-46.27289 3.10596,-19.80807 0.43333,-40.73603 -9.77789,-58.23786 -7.04714,-14.29557 -16.96957,-26.8744 -27.82133,-38.39938 15.73724,-16.90368 32.72029,-33.54438 49.79356,-48.90005 25.14152,21.52975 48.03078,50.23215 82.4105,56.52019 27.81166,6.51614 58.51591,-7.2294 71.84751,-32.56255 12.82467,-22.03082 12.42591,-48.95408 8.46126,-73.35914 -6.15025,-27.06412 -28.47163,-51.53042 -57.12298,-53.83434 -29.25126,-2.87129 -56.72948,12.6245 -77.04414,32.47824 -9.68702,8.37298 -18.75721,19.14298 -28.81354,26.005 -16.69533,-15.48557 -34.4611,-31.57252 -49.19611,-48.0679 18.29845,-24.11859 39.53881,-50.34101 38.85547,-82.34916 -0.54116,-33.28985 -29.10468,-63.87451 -63.2735,-62.19329 z m 1.87237,30.78992 c 15.68985,-1.20858 28.80095,12.53788 29.75771,27.70666 2.00198,24.16802 -11.77862,46.88769 -28.56281,62.94009 -3.47872,1.74502 -5.88471,-4.88703 -8.41229,-6.7693 -12.96414,-17.33234 -26.5945,-38.88993 -20.90002,-61.46514 3.60715,-12.68251 14.31974,-23.37989 28.11741,-22.41231 z m 170.02733,133.50299 c 19.39546,-1.93444 33.494,16.87502 35.59617,34.43594 2.26144,16.74196 2.9229,35.27706 -6.31855,50.28167 -7.36325,11.22348 -20.73575,17.46525 -34.08387,15.41095 -27.07738,-2.34481 -46.20963,-23.98458 -64.23368,-41.87737 -2.40709,-3.44385 -9.6474,-7.64657 -3.70739,-11.36219 14.25666,-14.12776 28.18985,-29.52971 45.36873,-39.92233 8.39994,-4.64265 17.75365,-7.17023 27.37859,-6.96667 z m -337.17679,0.3494 c 25.75611,-0.36366 44.03164,21.01166 61.23587,37.16481 2.77601,5.34427 15.99975,9.79816 10.71129,15.83737 -15.36417,15.52431 -30.82785,31.95638 -50.38288,42.30135 -14.79821,6.72054 -35.26207,8.80321 -47.40124,-4.23004 -15.84835,-14.97989 -15.9262,-39.60749 -11.86895,-59.54477 3.04734,-15.98012 15.43556,-31.7627 33.03932,-31.38978 1.55314,-0.10529 3.11011,-0.14297 4.66659,-0.13894 z m 166.84806,2.24843 c 18.52234,14.6073 34.69536,32.06974 52.18336,47.90254 -17.04851,16.23277 -33.62711,34.2343 -51.32186,49.00941 -17.10042,-15.39761 -34.82474,-30.60935 -49.83624,-47.91587 -0.3499,-4.5411 6.32311,-7.08022 8.54523,-10.71467 13.27267,-12.92663 26.451,-26.39851 40.42951,-38.28141 z m 0.69614,141.28581 c 19.18711,17.62216 35.31703,44.58625 27.62664,71.26969 -4.71096,16.85804 -26.49204,26.85285 -41.66401,17.10996 -18.77301,-10.46545 -18.67579,-35.66351 -11.19148,-53.22356 5.73763,-13.21737 13.80877,-26.11999 25.0288,-35.28145 z"
       id="path5026"
       transform="scale(0.26458333)" />
  </g>
</svg>
