<?xml version="1.0" encoding="UTF-8" standalone="no"?>
<!-- Created with Inkscape (http://www.inkscape.org/) -->

<svg
   width="194.0621mm"
   height="231.9055mm"
   viewBox="0 0 194.0621 231.9055"
   version="1.1"
   id="svg5176"
   inkscape:version="1.1.2 (0a00cf5339, 2022-02-04)"
   sodipodi:docname="heraldic-green-gold.svg"
   xmlns:inkscape="http://www.inkscape.org/namespaces/inkscape"
   xmlns:sodipodi="http://sodipodi.sourceforge.net/DTD/sodipodi-0.dtd"
   xmlns="http://www.w3.org/2000/svg"
   xmlns:svg="http://www.w3.org/2000/svg">
  <sodipodi:namedview
     id="namedview5178"
     pagecolor="#ffffff"
     bordercolor="#666666"
     borderopacity="1.0"
     inkscape:pageshadow="2"
     inkscape:pageopacity="0.0"
     inkscape:pagecheckerboard="0"
     inkscape:document-units="mm"
     showgrid="false"
     inkscape:zoom="0.73228114"
     inkscape:cx="353.68929"
     inkscape:cy="471.13053"
     inkscape:window-width="1920"
     inkscape:window-height="1007"
     inkscape:window-x="0"
     inkscape:window-y="0"
     inkscape:window-maximized="1"
     inkscape:current-layer="layer1" />
  <defs
     id="defs5173" />
  <g
     inkscape:label="Layer 1"
     inkscape:groupmode="layer"
     id="layer1"
     transform="translate(-11.536271,-23.868015)">
    <path
       style="fill:#000000;stroke-width:0.241232"
       d="M 106.18231,254.73383 C 88.528485,247.38164 71.192684,237.32385 57.935844,226.74243 44.556439,216.0632 34.136699,204.19977 26.598178,191.06286 20.47062,180.38475 16.068393,168.29189 14.068404,156.64377 12.488206,147.44053 12.60234,152.69479 12.52388,85.540551 L 12.45265,24.569077 h 96.26217 96.26216 l -0.0775,60.971474 c -0.0708,55.719449 -0.11272,61.231209 -0.48671,63.986869 -0.72135,5.31514 -1.61306,10.152 -2.59232,14.06151 -4.03706,16.11712 -11.59487,30.83815 -22.69035,44.1961 -2.97954,3.58708 -12.6259,13.13078 -16.62007,16.44318 -12.81576,10.62821 -28.39867,20.27006 -44.38675,27.4641 -2.92582,1.31651 -9.40804,3.98486 -9.62372,3.96152 -0.0804,-0.009 -1.12318,-0.4227 -2.31728,-0.92 z m 6.63389,-1.40763 c 17.14089,-7.08482 35.48036,-18.10781 49.33201,-29.65117 6.27318,-5.22779 14.86819,-14.09823 19.60395,-20.23218 2.30283,-2.98271 6.85926,-9.8014 8.6241,-12.90593 6.09118,-10.71505 10.55063,-23.185 12.52847,-35.03335 1.53385,-9.18865 1.41924,-3.8765 1.51211,-70.083639 l 0.0847,-60.36839 H 108.72377 12.946008 l 0.0034,57.4736 c 0.0021,34.694749 0.09744,59.093079 0.240646,61.559719 1.841721,31.72128 17.255032,59.81023 44.987011,81.98355 13.334043,10.66134 30.67712,20.79151 47.643395,27.82871 1.6985,0.7045 2.73161,1.00523 3.13602,0.91287 0.33169,-0.0757 2.06856,-0.74345 3.85971,-1.48379 z m -7.23697,-1.48951 C 96.882755,248.18256 86.916025,243.09423 78.68182,238.10471 49.575317,220.46762 30.552757,199.18846 21.128628,173.72414 18.649112,167.0244 16.749014,159.26984 15.554381,150.97482 l -0.538506,-3.7391 -0.130307,-59.946239 c -0.07168,-32.97043 -0.09677,-60.027648 -0.0558,-60.127156 0.04103,-0.09951 42.29814,-0.180925 93.904762,-0.180925 h 93.83023 l -0.0776,60.127161 c -0.0852,66.039389 0.0315,60.698449 -1.51072,69.107419 -5.16126,28.14144 -20.57872,51.69267 -46.7236,71.37356 -9.7724,7.35629 -20.92358,14.12142 -32.43642,19.67832 -4.74049,2.2881 -12.69297,5.75301 -13.17727,5.74136 -0.15718,-0.004 -1.53416,-0.53142 -3.05995,-1.17253 z m 6.06519,-0.52359 c 16.59548,-6.93362 32.86565,-16.44692 45.79976,-26.77946 16.47042,-13.15757 28.14348,-27.67171 35.58515,-44.24611 4.64967,-10.35595 7.63414,-21.80086 8.83903,-33.89613 0.26177,-2.62771 0.32442,-14.41416 0.32442,-61.031779 V 27.584481 H 108.71525 15.237716 l 1.4e-5,58.13699 c 7e-6,53.937269 0.0307,58.407099 0.424939,61.876099 2.310157,20.32771 8.853586,37.08157 20.695244,52.9883 6.054294,8.13265 14.835239,17.04507 23.913567,24.2716 7.047581,5.61002 17.254964,12.30079 26.129775,17.12764 6.22712,3.38683 21.159145,10.49652 22.137005,10.54025 0.10167,0.005 1.49944,-0.54097 3.10616,-1.21226 z m -6.40241,-17.35982 C 83.883275,224.10509 65.513609,210.99498 53.423331,196.97119 41.859663,183.55823 35.103986,169.793 32.151617,153.62837 30.7659,146.04137 30.797205,147.45473 30.797205,92.473411 V 41.937067 l 77.978355,0.06067 77.97835,0.06067 -0.0183,50.658784 c -0.02,55.542079 0.0473,52.719389 -1.45198,60.911159 -3.16152,17.27406 -11.34627,33.14576 -23.91329,46.37215 -9.71338,10.22302 -20.58749,18.5399 -35.16581,26.89597 -5.63532,3.23008 -16.55549,8.52744 -17.52328,8.50053 -0.18035,-0.005 -1.72803,-0.6547 -3.43929,-1.44374 z m 6.51941,-0.2842 c 4.13868,-1.81295 11.46609,-5.5696 15.64933,-8.02316 19.8756,-11.65745 34.00592,-24.09385 43.50378,-38.28858 8.29389,-12.39537 12.78911,-24.52151 14.91798,-40.24224 0.37042,-2.73541 0.4161,-7.73607 0.49195,-53.855119 l 0.0836,-50.839711 H 108.83803 31.267993 l 0.079,51.925261 c 0.08595,56.497109 -0.0088,52.412389 1.389171,59.885929 2.699784,14.43305 9.323595,28.33163 19.216918,40.32241 3.133353,3.79764 11.269215,11.95957 15.037457,15.08563 8.261074,6.85323 17.926346,13.2766 28.476776,18.92516 4.15901,2.22668 12.621595,6.30471 13.158085,6.34073 0.1496,0.0101 1.56081,-0.54629 3.13602,-1.23631 z m -6.28234,-59.43015 c -4.54746,-0.90318 -8.804085,-4.18365 -11.092855,-8.54894 -4.1828,-7.9777 -1.50871,-18.97439 6.811255,-28.00999 l 1.46873,-1.59504 -2.945985,-2.84998 c -1.62029,-1.56748 -4.5434,-4.4269 -6.49581,-6.35427 l -3.54983,-3.5043 -4.29022,4.22898 c -8.369779,8.25033 -13.254009,10.9329 -20.452786,11.23334 -3.347673,0.13971 -5.336967,-0.1929 -8.112736,-1.35645 -4.978651,-2.08696 -8.628196,-6.61304 -10.281303,-12.75062 -0.586146,-2.17622 -0.631031,-2.70323 -0.631031,-7.40876 0,-4.73896 0.04185,-5.22156 0.648428,-7.4782 0.356633,-1.32678 1.159116,-3.44359 1.783296,-4.70403 0.925438,-1.86878 1.515975,-2.67821 3.199949,-4.38605 1.754426,-1.779289 2.40909,-2.260389 4.351981,-3.198209 3.136854,-1.51414 5.112937,-1.89793 9.041416,-1.756 2.545592,0.092 3.52207,0.23755 5.186494,0.77331 5.55906,1.78938 10.131946,5.061159 16.824532,12.037469 l 2.71244,2.82743 6.61273,-6.33618 6.612735,-6.336189 -1.20727,-1.32094 c -4.213695,-4.61046 -7.342705,-9.98785 -8.547605,-14.68959 -0.7977,-3.11275 -0.84082,-7.21835 -0.10544,-10.03916 1.52425,-5.84691 5.02804,-9.72611 10.508555,-11.63454 1.74233,-0.60671 2.24633,-0.67201 5.1865,-0.67201 2.94016,0 3.44418,0.0653 5.18649,0.67201 4.21845,1.46895 7.27185,4.11459 9.22655,7.99442 4.11493,8.16762 1.58883,18.37994 -6.88855,27.84846 -0.82153,0.91757 -1.49369,1.76071 -1.49369,1.87364 0,0.11293 2.93272,3.000819 6.51714,6.417529 l 6.51714,6.21221 2.83062,-2.94202 c 8.79847,-9.144769 15.29709,-12.753649 22.96585,-12.753649 3.46654,0 5.71667,0.52268 8.51996,1.97908 4.93668,2.564759 8.20821,7.703809 9.25621,14.539999 0.55042,3.59052 0.32605,9.11713 -0.49969,12.30818 -1.85681,7.17555 -5.91027,11.62758 -12.44417,13.66778 -2.50067,0.78083 -7.59502,0.77879 -10.49361,-0.004 -5.30697,-1.43357 -9.94435,-4.5735 -16.50755,-11.17714 l -3.61161,-3.63385 -6.50906,6.33784 -6.50906,6.33784 1.57616,1.74027 c 8.36902,9.24042 10.94464,19.84788 6.78718,27.95232 -1.44172,2.81043 -4.40106,5.73449 -7.20038,7.11452 -3.28503,1.61947 -6.80034,2.07096 -10.4621,1.34368 z m 7.18651,-0.73291 c 5.20002,-1.25975 9.85008,-6.02403 11.39581,-11.67575 0.66984,-2.44916 0.57184,-6.71262 -0.22334,-9.7162 -1.30524,-4.93017 -4.92752,-10.98437 -8.82955,-14.75753 -0.54238,-0.52447 -0.98615,-1.07556 -0.98615,-1.22463 0,-0.14909 0.89558,-1.12853 1.99017,-2.17653 1.09458,-1.04801 4.13108,-3.99781 6.74777,-6.55511 2.61668,-2.5573 4.84246,-4.64964 4.94619,-4.64964 0.10372,0 1.97932,1.76608 4.16799,3.92463 5.72906,5.65019 9.44627,8.40748 13.54939,10.05045 4.82832,1.93335 9.28682,2.13173 13.77596,0.61295 4.71974,-1.5968 8.71874,-5.70707 10.42049,-10.71039 2.34491,-6.89432 1.96315,-15.17715 -0.97484,-21.15079 -4.2436,-8.628269 -14.31167,-11.649289 -23.96268,-7.190269 -3.98773,1.842449 -7.00469,4.158799 -12.43846,9.549949 -2.38329,2.36459 -4.395,4.29925 -4.47049,4.29925 -0.33281,0 -13.6371,-12.840209 -13.6909,-13.213339 -0.0332,-0.2302 0.69559,-1.27896 1.63032,-2.34615 6.493,-7.41301 9.5679,-14.92428 8.69759,-21.24623 -0.9494,-6.89649 -5.09485,-11.9667 -11.35343,-13.88612 -2.53618,-0.77781 -6.14818,-0.77781 -8.68437,0 -5.536185,1.69787 -9.496935,5.98097 -10.880415,11.76594 -0.70244,2.93725 -0.5526,6.96381 0.37546,10.08936 1.2962,4.36538 4.30813,9.33332 8.392675,13.84304 0.86068,0.95028 1.31834,1.64277 1.20666,1.82584 -0.099,0.16221 -3.1109,3.108089 -6.693195,6.546399 -3.5823,3.43831 -6.54945,6.33468 -6.59368,6.43637 -0.22137,0.509 -1.03878,-0.16962 -5.24628,-4.35544 -5.09944,-5.07318 -7.767237,-7.18226 -11.318342,-8.947919 -3.062134,-1.52254 -5.400191,-2.1738 -8.44313,-2.35179 -10.138375,-0.59302 -17.390639,6.211289 -18.710498,17.554779 -1.1893,10.22146 2.675652,19.18334 9.772795,22.66069 2.919841,1.43063 4.560201,1.78712 8.093391,1.75888 3.522994,-0.0282 5.652653,-0.5066 8.781486,-1.97281 3.915349,-1.8348 5.955751,-3.42847 11.880358,-9.27927 2.40825,-2.37825 4.49068,-4.28434 4.6276,-4.23574 0.28339,0.10057 1.23159,0.99231 8.54339,8.03461 2.885735,2.77938 5.246805,5.17387 5.246805,5.32107 0,0.14721 -0.39105,0.64175 -0.869,1.09898 -2.38096,2.27778 -5.770675,7.06944 -7.219735,10.20572 -0.44987,0.9737 -1.11351,2.73653 -1.47475,3.91741 -0.58988,1.92832 -0.65834,2.52801 -0.67192,5.88617 -0.0142,3.50547 0.0274,3.85954 0.6651,5.66664 2.87173,8.13749 10.724655,12.55556 18.827755,10.59252 z m -6.15275,-6.9728 c -2.51876,-0.8084 -4.51467,-2.73892 -5.54006,-5.35855 -0.4439,-1.13403 -0.54603,-1.86854 -0.54613,-3.92781 -1.3e-4,-2.27613 0.0867,-2.78395 0.8563,-5.00858 0.47104,-1.36161 1.38418,-3.34862 2.02919,-4.41559 1.35058,-2.2341 4.75935,-6.25594 5.30233,-6.25594 0.20211,0 0.98593,0.66618 1.74183,1.4804 6.12766,6.60044 8.29217,14.15294 5.53998,19.33032 -1.81255,3.40975 -5.97038,5.25118 -9.38344,4.15575 z m 5.50299,-1.13224 c 1.35009,-0.67427 3.07077,-2.50178 3.75741,-3.99071 0.45112,-0.97819 0.52991,-1.57622 0.5326,-4.04279 0.003,-2.5539 -0.0763,-3.12205 -0.67163,-4.82465 -1.05812,-3.02616 -2.95947,-6.01846 -5.82471,-9.16683 l -1.09769,-1.20616 -1.41605,1.50842 c -4.2941,4.57424 -6.47683,9.57947 -6.2532,14.33921 0.13056,2.77868 0.83862,4.42723 2.61533,6.08913 2.43642,2.27899 5.45149,2.74593 8.35794,1.29438 z M 61.497527,130.83809 c -2.002949,-0.56512 -3.480844,-1.42939 -4.732582,-2.76761 -2.217084,-2.37024 -3.291901,-5.80906 -3.291901,-10.53229 0,-6.45316 2.081643,-11.0132 5.881421,-12.88383 4.345062,-2.13906 9.803479,-1.09436 14.985173,2.86805 2.140573,1.63687 10.011147,9.44384 10.011147,9.93023 0,0.56512 -7.442681,7.77183 -10.037576,9.71933 -3.452315,2.591 -6.224385,3.71799 -9.622864,3.91218 -1.282503,0.0733 -2.353504,-0.009 -3.192818,-0.24606 z m 6.328838,-0.88702 c 3.46939,-0.99345 6.333356,-3.04791 11.940906,-8.56575 l 3.980424,-3.91675 -3.739094,-3.77014 c -5.882209,-5.93102 -9.035228,-8.19104 -12.785314,-9.16425 -2.328107,-0.60419 -5.481538,-0.41182 -7.263939,0.44311 -3.580604,1.71746 -5.615255,5.62912 -5.919652,11.38069 -0.410176,7.75013 2.808216,13.17111 8.358941,14.07958 1.671514,0.27357 3.275448,0.12981 5.427728,-0.48649 z m 33.935595,-5.55198 c -3.738325,-3.6044 -6.796235,-6.72534 -6.795355,-6.93543 0.002,-0.52363 13.120525,-13.28792 13.656495,-13.28792 0.23623,0 1.6834,1.22422 3.21593,2.7205 4.04034,3.94476 10.40134,9.93098 10.65223,10.02461 0.11851,0.0442 0.21546,0.21724 0.21546,0.38448 0,0.34111 -13.57741,13.6472 -13.92547,13.6472 -0.12228,0 -3.28095,-2.94904 -7.01929,-6.55344 z m 18.61049,-5.45347 1.64606,-1.67058 -0.80175,-0.66945 c -0.44096,-0.3682 -3.46299,-3.18902 -6.71561,-6.26848 l -5.91387,-5.59904 -6.50313,6.33455 -6.503125,6.33454 0.47599,0.53215 c 0.2618,0.29268 3.2214,3.18614 6.576885,6.42991 l 6.1009,5.89775 4.99579,-4.82539 c 2.74769,-2.65396 5.73652,-5.57715 6.64186,-6.49596 z m 29.77778,11.74591 c -2.57605,-0.60748 -5.79079,-2.43385 -8.88122,-5.04564 -2.735,-2.31141 -8.1893,-7.78437 -8.1893,-8.21731 0,-0.54973 8.99514,-9.34893 10.80936,-10.57389 7.62454,-5.14811 15.24849,-4.31681 18.23108,1.98786 1.24051,2.62222 1.65863,4.75893 1.68309,8.60097 0.0172,2.6962 -0.0804,3.88488 -0.42568,5.1865 -1.50682,5.68017 -4.82234,8.36201 -10.25904,8.29828 -1.13685,-0.0133 -2.47257,-0.11987 -2.96829,-0.23677 z m 5.78962,-0.56523 c 3.32923,-0.88626 5.77435,-3.50979 6.78417,-7.27919 0.85589,-3.19479 0.75451,-8.01139 -0.23806,-11.31086 -0.68849,-2.28864 -1.26702,-3.35439 -2.58676,-4.76529 -2.69868,-2.88511 -6.62854,-3.48734 -11.31725,-1.73431 -3.51766,1.31519 -5.50338,2.89215 -12.24157,9.72162 l -2.64953,2.68543 2.77014,2.79463 c 7.3496,7.41457 11.84448,10.17319 16.641,10.213 0.86242,0.007 2.13945,-0.13911 2.83786,-0.32503 z M 107.20868,92.052961 c -6.2892,-7.36158 -8.301205,-14.16956 -5.73117,-19.39238 2.38792,-4.85271 8.68803,-6.05162 12.70935,-2.4186 1.97055,1.78028 3.16684,5.29587 2.84444,8.35909 -0.30951,2.94077 -1.68519,6.39549 -3.79596,9.53273 -1.5327,2.27807 -4.07214,5.18649 -4.52848,5.18649 -0.22851,0 -0.90269,-0.5703 -1.49818,-1.26733 z m 2.77191,-0.72369 c 3.14404,-3.68015 5.38854,-7.60388 6.10567,-10.67368 1.7575,-7.52318 -3.29029,-13.48503 -9.78462,-11.55642 -1.90624,0.56609 -4.0671,2.78415 -4.78247,4.90907 -0.62866,1.86732 -0.69337,4.54486 -0.16089,6.65698 0.47363,1.87868 2.44443,5.85186 3.88409,7.83042 1.44837,1.99054 3.23556,4.10095 3.47288,4.10095 0.10044,0 0.66985,-0.57029 1.26534,-1.26732 z"
       id="path569" />
    <path
       style="fill:#008000;stroke-width:1.3656"
       d="m 57.093637,103.89463 c -0.911586,65.36176 0.106321,131.051 -0.06305,196.53872 0.359729,88.1868 -0.03362,176.44001 0.79672,264.58531 9.254355,57.51186 26.441177,114.53554 58.244603,163.81043 56.39713,89.55379 144.11825,154.96708 238.01,201.2221 18.55401,8.53496 36.54609,18.96829 56.03156,25.10833 25.29442,-7.9788 48.84603,-20.92905 72.5906,-32.6621 92.21286,-47.93881 178.17894,-115.06949 230.34761,-206.51718 28.59613,-50.4092 46.96026,-107.14525 50.79953,-165.08123 2.69144,-89.7114 1.01603,-179.49576 1.51718,-269.23689 0,-58.83708 0,-117.67417 0,-176.51125 -5.8179,-4.57864 -16.26356,-0.73212 -23.84991,-2.00038 -227.6224,0 -455.24481,0 -682.867209,0 l -1.232201,0.58867 z m 353.886653,56.51486 c 97.67745,0 195.35488,0 293.03232,0 -0.35235,130.58521 0.83438,261.35549 -1.28292,391.82729 -5.81554,66.16627 -33.51027,129.92795 -75.25606,181.37531 -32.26628,35.8027 -67.1231,70.04404 -108.08729,95.97723 -34.48147,22.53661 -70.40982,43.49408 -108.64609,58.72536 C 322.81627,848.89392 238.148,794.61328 180.91209,715.55083 149.18546,671.6738 127.62297,619.83254 120.68719,566.03409 c -3.21481,-62.95018 -1.4592,-126.39557 -2.1847,-189.54559 -0.17894,-72.02634 -0.3648,-144.05267 -0.54649,-216.07901 97.67476,0 195.34953,0 293.02429,0 z"
       id="path5298"
       transform="scale(0.26458333)" />
    <path
       style="fill:#ffcc00;stroke-width:1.3656"
       d="m 406.31274,227.88645 c -19.52574,-0.10327 -37.49922,12.94513 -47.75051,28.9389 -17.29926,28.34837 -9.61128,65.43367 9.37841,90.94591 5.89755,8.98674 13.17328,16.94572 19.35512,25.71917 -15.61865,15.81651 -31.59925,31.31396 -47.8332,46.54494 -24.53753,-21.97304 -47.15466,-50.02964 -81.05024,-57.31501 -25.24941,-5.86485 -54.00926,2.58153 -69.34171,24.18351 -18.47344,25.17348 -20.40729,59.51598 -12.11661,88.84888 7.11307,23.87175 27.39086,45.74906 52.91682,48.62825 17.16647,0.63386 35.4503,1.37241 50.65241,-8.05779 22.2613,-12.12227 38.67654,-32.05437 58.28854,-47.68117 16.70461,14.309 32.49364,30.45115 48.588,45.75013 -22.94207,24.42577 -43.38818,57.11366 -37.72992,92.04701 4.77097,31.53471 35.55378,58.16607 68.07976,53.38894 28.06687,-2.45727 51.20114,-27.55408 55.0159,-54.79453 4.05111,-29.35472 -10.85345,-57.05169 -28.37765,-79.39287 -1.87558,-4.45845 -11.85072,-8.71595 -7.77573,-12.84102 15.26478,-15.02651 29.84468,-30.82021 46.09929,-44.80045 24.23682,21.32892 47.0394,49.02026 80.28475,55.65337 23.04093,4.56759 49.0945,-0.52485 65.08717,-18.79561 23.0858,-25.28079 25.87203,-63.75477 16.44851,-95.40233 -8.05587,-27.96186 -34.96409,-49.96763 -64.63109,-48.524 -32.46103,0.48667 -59.50875,21.59211 -81.14206,43.81759 -5.37204,5.10161 -10.6421,10.31978 -16.20998,15.20975 -15.84212,-15.43399 -32.30322,-30.3855 -47.48112,-46.3369 15.69575,-21.37734 34.15078,-43.06815 37.30331,-70.4967 4.9697,-28.73109 -10.503,-60.00729 -37.83675,-71.29854 -8.66928,-4.76679 -18.70521,-3.90235 -28.22142,-3.93943 z m 5.98249,33.17971 c 16.82076,-0.58519 27.93035,16.97178 26.55709,32.48091 -0.48347,21.82326 -13.73714,40.43277 -28.03739,55.77872 -14.66972,-16.56474 -29.37777,-36.95144 -28.07472,-60.21424 0.4589,-15.7312 13.24157,-29.34757 29.55502,-28.04539 z m 168.8351,133.39097 c 14.93042,-0.67978 27.58723,10.64519 31.22733,24.8421 6.01538,20.64107 6.42168,46.00733 -8.1749,63.22014 -9.71523,9.9071 -25.33835,10.28802 -38.17,7.96421 -24.21651,-8.64792 -42.16179,-28.60852 -59.27273,-46.69698 13.83977,-14.70699 27.90307,-29.82207 44.7846,-41.05322 8.98979,-5.0811 19.19204,-8.47561 29.6057,-8.27625 z m -338.77976,0.57344 c 23.92422,-0.98134 41.40016,17.75246 57.10234,33.08572 4.90449,5.3905 12.08233,10.74881 15.37024,16.54782 -17.43082,16.96617 -34.13403,36.76926 -57.6484,45.27269 -15.41255,5.10103 -34.59907,1.74038 -43.88577,-12.54107 -10.08677,-14.33511 -6.43761,-32.8214 -6.23586,-49.09477 0.50598,-17.21558 15.17472,-34.25424 33.00367,-33.23838 2.15503,-0.066 0.18862,0.008 2.29378,-0.032 z m 168.6804,2.85122 c 16.66704,14.61658 33.39458,30.16639 48.54267,45.87014 -15.69296,16.33259 -32.01317,32.01213 -48.58534,47.40911 -16.49973,-15.08833 -32.35786,-30.86934 -47.47045,-47.40911 14.80709,-16.30982 30.41513,-31.70721 47.07038,-46.21421 z m 4.08612,145.15855 c 14.07479,15.91147 26.78167,36.398 23.26047,58.58459 -0.89583,19.49222 -25.14041,32.17913 -41.63467,21.88688 -12.58597,-7.80573 -15.52653,-23.69284 -13.14918,-37.2445 2.35321,-18.8313 14.25037,-34.64293 27.25323,-47.73183 1.42339,1.50161 2.84677,3.00323 4.27015,4.50486 z"
       id="path5530"
       transform="scale(0.26458333)" />
    <path
       style="fill:#ffffff;stroke-width:1.3656"
       d="m 116.96381,159.88405 c -0.8099,64.45346 0.31948,129.23306 0.25557,193.81197 0.60005,70.34818 -0.0845,140.74143 2.2169,211.05516 9.26884,70.42368 42.44554,136.74256 91.07466,188.26324 55.38147,59.7024 126.39291,102.9923 199.90267,136.32937 46.60963,-19.38004 90.77507,-44.97419 131.55986,-74.75528 49.29203,-36.81001 94.71636,-81.12983 123.04509,-136.4201 20.23661,-37.15614 33.23943,-78.26839 38.22056,-120.25321 2.34495,-80.44387 1.13737,-160.95993 1.82789,-241.43287 0.15441,-51.7789 0.30882,-103.5578 0.46321,-155.3367 -5.81234,-4.58876 -16.26408,-0.73556 -23.84991,-2.00572 -187.71962,0 -375.43924,0 -563.15887,0 l -1.2322,0.58867 z m 293.98181,69.27732 c 32.94154,-1.31208 60.57297,29.47217 60.76102,61.48648 0.24712,31.12717 -19.19674,58.04058 -37.68991,81.63968 1.62263,7.27737 11.18412,11.72546 15.84042,17.89231 11.06294,10.10714 21.07133,21.93315 32.79825,30.95707 25.67371,-22.73987 50.47542,-51.7855 86.29392,-57.67774 30.86607,-6.14882 63.86674,13.58263 73.06471,43.66172 9.78145,30.40773 8.07822,66.56865 -11.98363,92.88451 -17.15434,22.75334 -49.40234,28.9157 -75.45985,19.60644 -29.4125,-9.48101 -49.16576,-34.83027 -72.48325,-53.20222 -15.9973,15.1304 -33.04298,29.91595 -46.82233,47.24908 -0.79168,7.12646 8.25894,10.48686 10.70073,16.53384 19.98421,26.10581 34.72416,62.53426 19.17434,93.63666 -12.45671,26.54893 -46.10651,42.64989 -74.14677,31.05935 -27.87323,-10.19574 -44.67714,-40.94183 -39.82931,-69.96072 3.4595,-26.76603 19.04971,-50.16323 37.24401,-69.36743 -1.15827,-7.22419 -11.13218,-11.51741 -15.70702,-17.56338 -11.37354,-10.13238 -21.92697,-21.83355 -34.27859,-30.46985 -25.09222,18.64852 -45.50671,47.66212 -77.88696,54.11173 -24.82722,5.33411 -54.08161,-0.45967 -69.63205,-22.06825 -12.22181,-16.02205 -17.58625,-36.49586 -16.05909,-56.44818 -1.09709,-15.22813 1.22315,-30.58407 8.74302,-44.05113 10.62006,-23.84338 36.74393,-38.29786 62.50267,-36.33498 30.19364,1.22983 54.07874,21.92492 74.72062,41.77025 6.38662,5.23787 11.66951,12.36312 18.708,16.48629 17.07849,-14.80114 34.01713,-30.66205 48.90763,-47.5337 -13.94519,-20.11779 -31.85999,-40.0436 -36.39056,-65.31999 -7.19045,-29.58926 8.27271,-64.93618 38.18868,-75.44116 6.61909,-2.44465 13.69038,-3.4291 20.7213,-3.53668 z"
       id="path5569"
       transform="scale(0.26458333)" />
    <path
       style="fill:#ffffff;stroke-width:1.3656"
       d="m 240.0808,394.04638 c -19.03199,-1.22121 -34.13629,17.02673 -34.08655,35.18543 -1.40159,18.8775 -3.35772,42.37977 12.4824,56.06144 16.3752,13.03695 40.25206,9.1661 56.01527,-2.91384 15.58226,-10.8576 29.48933,-24.46233 42.14561,-38.29765 -8.98644,-11.22001 -20.81685,-21.33375 -31.64677,-31.37313 -12.30635,-11.29687 -27.65269,-20.04036 -44.90996,-18.66225 z"
       id="path5645"
       transform="scale(0.26458333)" />
    <path
       style="fill:#ffffff;stroke-width:1.3656"
       d="m 409.96144,396.88426 c -17.29769,13.47757 -31.58508,30.41444 -47.41711,45.52608 0.89152,7.35442 10.97582,12.02049 15.44284,18.28426 10.62016,10.44679 20.87757,21.31625 31.9876,31.23459 6.53438,-0.96448 10.21394,-8.81675 15.54974,-12.474 11.85207,-12.09676 25.28428,-23.21561 35.98817,-36.07933 -15.42684,-16.16145 -32.64826,-30.97469 -49.02276,-46.34491 -0.8342,0.14174 -1.73219,-1.12625 -2.52848,-0.14669 z"
       id="path5684"
       transform="scale(0.26458333)" />
    <path
       style="fill:#ffffff;stroke-width:1.3656"
       d="m 410.16148,260.21266 c -17.7587,-0.85304 -31.17702,17.45408 -28.44013,34.27859 1.21662,21.38013 14.0257,40.56842 28.34024,55.43001 11.31532,-7.05072 18.0062,-20.66584 24.44323,-32.32424 8.42632,-17.34258 8.9519,-42.9268 -9.10308,-54.35977 -4.59871,-2.63579 -10.04336,-3.12388 -15.24026,-3.02459 z"
       id="path5723"
       transform="scale(0.26458333)" />
    <path
       style="fill:#ffffff;stroke-width:1.3656"
       d="m 579.19662,393.00885 c -21.7857,0.5516 -39.35416,15.19921 -53.75012,30.11138 -6.5268,7.03626 -14.68682,13.03272 -20.1174,20.7784 16.90098,17.9731 34.53542,37.82438 58.21118,46.97969 16.32587,4.66806 38.85839,1.99494 46.71298,-15.29361 9.60609,-16.21319 7.77911,-36.439 4.23548,-54.17841 -3.78526,-16.0282 -18.03067,-29.83412 -35.29212,-28.39745 z"
       id="path5762"
       transform="scale(0.26458333)" />
    <path
       style="fill:#ffffff;stroke-width:1.3656"
       d="m 408.75587,537.76466 c -16.36776,17.9545 -31.23086,41.84373 -25.76228,67.18091 2.19381,16.32703 20.14368,28.11194 35.79888,22.14559 11.92968,-3.84023 21.85196,-14.95392 20.75332,-28.05606 1.28259,-11.8218 -0.83779,-23.68938 -7.42809,-33.72115 -5.75175,-10.44009 -12.54215,-20.99928 -21.93222,-28.2801 l -1.21593,0.62158 z"
       id="path5801"
       transform="scale(0.26458333)" />
    <path
       style="fill:#ffffff;stroke-width:1.3656"
       d="m 47.603813,94.335459 c -0.995626,65.247961 -0.08393,130.823431 -0.33348,196.197691 0.53746,90.60153 -0.768588,181.27255 3.032091,271.81477 4.726403,54.77151 22.761593,108.15196 49.548762,156.02211 41.679544,74.23242 106.132064,133.06306 177.480494,178.27627 40.78207,25.76198 83.4899,48.94615 128.55964,66.27739 9.99268,3.75868 19.16202,-5.04719 28.40546,-7.58813 67.62013,-29.65484 131.79174,-68.16483 187.79489,-116.42966 32.97625,-30.80898 65.05486,-63.35781 88.3394,-102.34919 35.89121,-56.33918 58.43861,-121.84902 61.98673,-188.707 2.04826,-150.74077 1.33201,-301.50422 1.82696,-452.255342 -5.81372,-4.58366 -16.26408,-0.733865 -23.84991,-2.003052 -233.74447,0 -467.48893,0 -701.233404,0 l -1.2322,0.588671 z M 763.74408,331.49302 c -0.6997,77.59248 0.81172,155.31506 -2.06787,232.81551 -4.43947,49.14885 -20.68553,96.86803 -43.30351,140.5469 -27.41905,52.9132 -68.16382,97.83454 -113.43512,136.3222 -58.54679,47.56292 -124.7327,85.74538 -194.57873,113.92589 C 310.20236,912.82652 213.9109,854.05307 145.06639,768.47078 103.32174,717.25938 75.521352,655.36703 63.361461,590.60912 59.083904,573.57171 57.862548,556.10871 58.637168,538.54351 58.407225,393.9575 58.177199,249.37148 57.947134,104.78547 c 80.217946,-2.36636 160.691936,-1.08176 241.022256,-1.64259 155.11421,-0.15769 310.22854,-0.0585 465.34281,-0.0884 -0.18938,76.14618 -0.37875,152.29238 -0.56812,228.43855 z"
       id="path5840"
       transform="scale(0.26458333)" />
    <path
       style="fill:#ffcc00;stroke-width:1.3656"
       d="m 44.944636,91.420232 c -2.687853,14.592478 -0.376388,30.169068 -1.145006,45.139338 0.461932,137.07892 -1.273564,274.20807 2.809973,411.24458 2.729417,90.67788 43.490248,177.23887 102.401817,245.04113 53.58868,60.9309 121.73037,107.44257 193.23758,144.89326 22.25125,10.65489 44.22926,23.08823 68.31789,28.96454 20.30288,-4.22785 38.64028,-15.17269 57.51771,-23.47117 71.16345,-34.90817 138.20639,-79.89768 192.48231,-138.07696 51.00524,-51.79278 86.70958,-118.04493 104.82549,-188.26042 8.02413,-29.58315 10.27326,-60.22613 10.20167,-90.77148 1.22115,-135.15522 1.68207,-270.32518 1.38181,-405.48621 -0.65845,-9.17307 0.83459,-18.83138 -1.69358,-27.725654 -6.36526,-4.478114 -15.59135,-1.009923 -23.04439,-2.20924 -234.81306,-0.786938 -469.62811,-0.365365 -704.44206,-0.47661 -0.950404,0.398299 -1.900809,0.796598 -2.851214,1.194896 z M 760.73017,106.42045 c -0.5073,144.72641 1.13297,289.54034 -2.16575,434.1981 0.0861,38.53738 -7.21424,75.94014 -20.93469,111.99752 -19.44095,51.2282 -47.60828,99.89752 -86.38442,139.10651 -28.83447,30.75326 -60.52883,58.85254 -95.80101,82.04728 -45.37473,31.0955 -94.17575,56.6327 -144.89342,77.7703 C 310.99878,909.23259 215.72208,850.83431 147.34132,765.48751 106.14973,714.41244 78.889076,652.99413 66.135386,589.09232 c -6.883959,-22.6964 -3.057457,-46.57772 -4.099,-69.92048 -0.252651,-137.01213 -0.504077,-274.02426 -0.755278,-411.0364 113.658552,-2.36411 227.546742,-1.23545 341.308242,-1.7011 119.38027,-0.0297 238.76055,-0.007 358.14082,-0.0139 z"
       id="path5916"
       transform="scale(0.26458333)" />
  </g>
</svg>
