<?xml version="1.0" encoding="UTF-8" standalone="no"?>
<!-- Created with Inkscape (http://www.inkscape.org/) -->

<svg
   width="193.3166mm"
   height="231.64282mm"
   viewBox="0 0 193.3166 231.64282"
   version="1.1"
   id="svg6106"
   inkscape:version="1.1.2 (0a00cf5339, 2022-02-04)"
   sodipodi:docname="heraldic-blue-gold.svg"
   xmlns:inkscape="http://www.inkscape.org/namespaces/inkscape"
   xmlns:sodipodi="http://sodipodi.sourceforge.net/DTD/sodipodi-0.dtd"
   xmlns="http://www.w3.org/2000/svg"
   xmlns:svg="http://www.w3.org/2000/svg">
  <sodipodi:namedview
     id="namedview6108"
     pagecolor="#ffffff"
     bordercolor="#666666"
     borderopacity="1.0"
     inkscape:pageshadow="2"
     inkscape:pageopacity="0.0"
     inkscape:pagecheckerboard="0"
     inkscape:document-units="mm"
     showgrid="false"
     inkscape:zoom="0.73228114"
     inkscape:cx="363.24846"
     inkscape:cy="501.17363"
     inkscape:window-width="1920"
     inkscape:window-height="1007"
     inkscape:window-x="0"
     inkscape:window-y="0"
     inkscape:window-maximized="1"
     inkscape:current-layer="layer1" />
  <defs
     id="defs6103" />
  <g
     inkscape:label="Layer 1"
     inkscape:groupmode="layer"
     id="layer1"
     transform="translate(-8.9937506,-15.826839)">
    <path
       style="fill:#000000;stroke-width:0.241232"
       d="M 103.03673,246.62298 C 85.382908,239.27079 68.04711,229.213 54.79027,218.63158 41.410865,207.95235 30.991125,196.08892 23.452604,182.95201 17.325046,172.2739 12.922819,160.18104 10.92283,148.53292 9.342631,139.32968 9.456766,144.58394 9.378306,77.429694 L 9.307073,16.458227 h 96.262157 96.26216 l -0.0775,60.971467 c -0.0708,55.719456 -0.11272,61.231216 -0.48671,63.986876 -0.72135,5.31514 -1.61306,10.152 -2.59232,14.06151 -4.03706,16.11712 -11.59487,30.83815 -22.69035,44.1961 -2.97954,3.58708 -12.6259,13.13078 -16.62007,16.44318 -12.81576,10.62821 -28.39867,20.27006 -44.38675,27.4641 -2.92582,1.31651 -9.40804,3.98486 -9.62372,3.96152 -0.0804,-0.009 -1.12318,-0.4227 -2.31728,-0.92 z m 6.63389,-1.40763 c 17.14089,-7.08482 35.48036,-18.10781 49.33201,-29.65117 6.27318,-5.22779 14.86819,-14.09823 19.60395,-20.23218 2.30283,-2.98271 6.85926,-9.8014 8.6241,-12.90593 6.09118,-10.71505 10.55063,-23.185 12.52847,-35.03335 1.53385,-9.18865 1.41924,-3.8765 1.51211,-70.083636 l 0.0847,-60.368393 H 105.57819 9.800434 l 0.0034,57.473603 c 0.0021,34.694746 0.09744,59.093076 0.240646,61.559716 1.841721,31.72128 17.255032,59.81023 44.987011,81.98355 13.334043,10.66134 30.677123,20.79151 47.643389,27.82871 1.6985,0.7045 2.73161,1.00523 3.13602,0.91287 0.33169,-0.0757 2.06856,-0.74345 3.85971,-1.48379 z m -7.23697,-1.48951 C 93.737183,240.07171 83.770447,234.98338 75.536246,229.99386 46.429743,212.35677 27.407183,191.07761 17.983054,165.61329 15.503538,158.91355 13.60344,151.15899 12.408807,142.86397 l -0.538506,-3.7391 -0.130307,-59.946236 c -0.07168,-32.97043 -0.09677,-60.027651 -0.0558,-60.127159 0.04103,-0.09951 42.29814,-0.180925 93.904756,-0.180925 h 93.83023 l -0.0776,60.127164 c -0.0852,66.039386 0.0315,60.698446 -1.51072,69.107416 -5.16126,28.14144 -20.57872,51.69267 -46.7236,71.37356 -9.7724,7.35629 -20.92358,14.12142 -32.43642,19.67832 -4.74049,2.2881 -12.69297,5.75301 -13.17727,5.74136 -0.15718,-0.004 -1.53416,-0.53142 -3.05995,-1.17253 z m 6.06519,-0.52359 c 16.59548,-6.93362 32.86565,-16.44692 45.79976,-26.77946 16.47042,-13.15757 28.14348,-27.67171 35.58515,-44.24611 4.64967,-10.35595 7.63414,-21.80086 8.83903,-33.89613 0.26177,-2.62771 0.32442,-14.41416 0.32442,-61.031776 V 19.473631 H 105.56967 12.092142 l 1.4e-5,58.136993 c 7e-6,53.937266 0.0307,58.407096 0.424939,61.876096 2.310157,20.32771 8.853586,37.08157 20.695244,52.9883 6.054294,8.13265 14.835239,17.04507 23.913567,24.2716 7.047581,5.61002 17.254964,12.30079 26.129777,17.12764 6.22712,3.38683 21.159137,10.49652 22.136997,10.54025 0.10167,0.005 1.49944,-0.54097 3.10616,-1.21226 z m -6.40241,-17.35982 C 80.737696,215.99424 62.368035,202.88413 50.277757,188.86034 38.714089,175.44738 31.958412,161.68215 29.006043,145.51752 c -1.385717,-7.587 -1.354412,-6.17364 -1.354412,-61.154966 v -50.53634 l 77.978349,0.0607 77.97835,0.0607 -0.0183,50.65879 c -0.02,55.542076 0.0473,52.719386 -1.45198,60.911156 -3.16152,17.27406 -11.34627,33.14576 -23.91329,46.37215 -9.71338,10.22302 -20.58749,18.5399 -35.16581,26.89597 -5.63532,3.23008 -16.55549,8.52744 -17.52328,8.50053 -0.18035,-0.005 -1.72803,-0.6547 -3.43929,-1.44374 z m 6.51941,-0.2842 c 4.13868,-1.81295 11.46609,-5.5696 15.64933,-8.02316 19.8756,-11.65745 34.00592,-24.09385 43.50378,-38.28858 8.29389,-12.39537 12.78911,-24.52151 14.91798,-40.24224 0.37042,-2.73541 0.4161,-7.73607 0.49195,-53.855116 l 0.0836,-50.83971 H 105.69245 28.122419 l 0.079,51.92526 c 0.08595,56.497106 -0.0088,52.412386 1.389171,59.885926 2.699784,14.43305 9.323595,28.33163 19.216918,40.32241 3.133353,3.79764 11.269215,11.95957 15.037457,15.08563 8.261074,6.85323 17.926341,13.2766 28.476778,18.92516 4.15901,2.22668 12.621587,6.30471 13.158077,6.34073 0.1496,0.0101 1.56081,-0.54629 3.13602,-1.23631 z m -6.28234,-59.43015 c -4.547447,-0.90318 -8.804077,-4.18365 -11.092847,-8.54894 -4.182805,-7.9777 -1.50871,-18.97439 6.81126,-28.00999 l 1.46872,-1.59504 -2.94598,-2.84998 c -1.62029,-1.56748 -4.54341,-4.4269 -6.49581,-6.35427 l -3.549831,-3.5043 -4.29022,4.22898 c -8.36978,8.25033 -13.25401,10.9329 -20.452787,11.23334 -3.347673,0.13971 -5.336967,-0.1929 -8.112736,-1.35645 -4.978651,-2.08696 -8.628196,-6.61304 -10.281303,-12.75062 -0.586146,-2.17622 -0.631031,-2.70323 -0.631031,-7.40876 0,-4.73896 0.04185,-5.22156 0.648428,-7.4782 0.356633,-1.32678 1.159116,-3.443586 1.783296,-4.704026 0.925438,-1.86878 1.515975,-2.67821 3.199949,-4.38605 1.754426,-1.77929 2.40909,-2.26039 4.351981,-3.19821 3.136854,-1.51414 5.112937,-1.89793 9.041416,-1.756 2.545592,0.092 3.52207,0.23755 5.186494,0.77331 5.55906,1.78938 10.131946,5.06116 16.824528,12.037466 l 2.712441,2.82743 6.612735,-6.336176 6.61274,-6.33619 -1.20727,-1.32094 c -4.2137,-4.61047 -7.34271,-9.98786 -8.54761,-14.6896 -0.797698,-3.11274 -0.840819,-7.21834 -0.10544,-10.03916 1.52425,-5.8469 5.02804,-9.72611 10.508547,-11.63453 1.74233,-0.60671 2.24633,-0.67201 5.1865,-0.67201 2.94016,0 3.44418,0.0653 5.18649,0.67201 4.21845,1.46895 7.27185,4.11459 9.22655,7.99442 4.11493,8.16762 1.58883,18.37994 -6.88855,27.84846 -0.82153,0.91757 -1.49369,1.76071 -1.49369,1.87364 0,0.11293 2.93272,3.00082 6.51714,6.41753 l 6.51714,6.212206 2.83062,-2.94202 c 8.79847,-9.144766 15.29709,-12.753646 22.96585,-12.753646 3.46654,0 5.71667,0.52268 8.51996,1.97908 4.93668,2.56476 8.20821,7.70381 9.25621,14.539996 0.55042,3.59052 0.32605,9.11713 -0.49969,12.30818 -1.85681,7.17555 -5.91027,11.62758 -12.44417,13.66778 -2.50067,0.78083 -7.59502,0.77879 -10.49361,-0.004 -5.30697,-1.43357 -9.94435,-4.5735 -16.50755,-11.17714 l -3.61161,-3.63385 -6.50906,6.33784 -6.50906,6.33784 1.57616,1.74027 c 8.36902,9.24042 10.94464,19.84788 6.78718,27.95232 -1.44172,2.81043 -4.40106,5.73449 -7.20038,7.11452 -3.28503,1.61947 -6.80034,2.07096 -10.4621,1.34368 z m 7.18651,-0.73291 c 5.20002,-1.25975 9.85008,-6.02403 11.39581,-11.67575 0.66984,-2.44916 0.57184,-6.71262 -0.22334,-9.7162 -1.30524,-4.93017 -4.92752,-10.98437 -8.82955,-14.75753 -0.54238,-0.52447 -0.98615,-1.07556 -0.98615,-1.22463 0,-0.14909 0.89558,-1.12853 1.99017,-2.17653 1.09458,-1.04801 4.13108,-3.99781 6.74777,-6.55511 2.61668,-2.5573 4.84246,-4.64964 4.94619,-4.64964 0.10372,0 1.97932,1.76608 4.16799,3.92463 5.72906,5.65019 9.44627,8.40748 13.54939,10.05045 4.82832,1.93335 9.28682,2.13173 13.77596,0.61295 4.71974,-1.5968 8.71874,-5.70707 10.42049,-10.71039 2.34491,-6.89432 1.96315,-15.17715 -0.97484,-21.150786 -4.2436,-8.62827 -14.31167,-11.6493 -23.96268,-7.19027 -3.98773,1.84245 -7.00469,4.1588 -12.43846,9.54995 -2.38329,2.364586 -4.395,4.299246 -4.47049,4.299246 -0.33281,0 -13.6371,-12.840206 -13.6909,-13.213336 -0.0332,-0.2302 0.69559,-1.27896 1.63032,-2.34615 6.493,-7.41301 9.5679,-14.92428 8.69759,-21.24623 -0.9494,-6.89649 -5.09485,-11.9667 -11.35343,-13.88612 -2.53618,-0.77781 -6.14818,-0.77781 -8.68437,0 -5.536187,1.69787 -9.496927,5.98097 -10.880407,11.76593 -0.70245,2.93726 -0.5526,6.96381 0.37545,10.08937 1.2962,4.36538 4.30813,9.33332 8.39268,13.84304 0.86068,0.95028 1.318337,1.64277 1.206657,1.82584 -0.099,0.16221 -3.110887,3.10809 -6.693187,6.5464 -3.5823,3.438306 -6.549456,6.334676 -6.593684,6.436366 -0.22137,0.509 -1.03878,-0.16962 -5.24628,-4.355436 -5.099438,-5.07318 -7.767235,-7.18226 -11.31834,-8.94792 -3.062134,-1.52254 -5.400191,-2.1738 -8.44313,-2.35179 -10.138375,-0.59302 -17.390639,6.21129 -18.710498,17.554776 -1.1893,10.22146 2.675652,19.18334 9.772795,22.66069 2.919841,1.43063 4.560201,1.78712 8.093391,1.75888 3.522994,-0.0282 5.652653,-0.5066 8.781486,-1.97281 3.915349,-1.8348 5.955751,-3.42847 11.880355,-9.27927 2.408256,-2.37825 4.490678,-4.28434 4.627604,-4.23574 0.283384,0.10057 1.231586,0.99231 8.543391,8.03461 2.88574,2.77938 5.246797,5.17387 5.246797,5.32107 0,0.14721 -0.391037,0.64175 -0.868987,1.09898 -2.38097,2.27778 -5.77069,7.06944 -7.21974,10.20572 -0.44988,0.9737 -1.11351,2.73653 -1.47475,3.91741 -0.58988,1.92832 -0.65834,2.52801 -0.67193,5.88617 -0.0142,3.50547 0.0273,3.85954 0.66511,5.66664 2.87173,8.13749 10.724647,12.55556 18.827747,10.59252 z m -6.15275,-6.9728 c -2.51876,-0.8084 -4.514657,-2.73892 -5.540057,-5.35855 -0.44389,-1.13403 -0.54602,-1.86854 -0.54613,-3.92781 -1.2e-4,-2.27613 0.0867,-2.78395 0.85631,-5.00858 0.47104,-1.36161 1.38418,-3.34862 2.029177,-4.41559 1.35058,-2.2341 4.75935,-6.25594 5.30233,-6.25594 0.20211,0 0.98593,0.66618 1.74183,1.4804 6.12766,6.60044 8.29217,14.15294 5.53998,19.33032 -1.81255,3.40975 -5.97038,5.25118 -9.38344,4.15575 z m 5.50299,-1.13224 c 1.35009,-0.67427 3.07077,-2.50178 3.75741,-3.99071 0.45112,-0.97819 0.52991,-1.57622 0.5326,-4.04279 0.003,-2.5539 -0.0763,-3.12205 -0.67163,-4.82465 -1.05812,-3.02616 -2.95947,-6.01846 -5.82471,-9.16683 l -1.09769,-1.20616 -1.41605,1.50842 c -4.294087,4.57424 -6.476827,9.57947 -6.253187,14.33921 0.13056,2.77868 0.83862,4.42723 2.615317,6.08913 2.43642,2.27899 5.45149,2.74593 8.35794,1.29438 z M 58.351953,122.72724 c -2.002949,-0.56512 -3.480844,-1.42939 -4.732582,-2.76761 -2.217084,-2.37024 -3.291901,-5.80906 -3.291901,-10.53229 0,-6.45316 2.081643,-11.013196 5.881421,-12.883826 4.345062,-2.13906 9.803479,-1.09436 14.985173,2.86805 2.140573,1.636866 10.011145,9.443836 10.011145,9.930226 0,0.56512 -7.442679,7.77183 -10.037574,9.71933 -3.452315,2.591 -6.224385,3.71799 -9.622864,3.91218 -1.282503,0.0733 -2.353504,-0.009 -3.192818,-0.24606 z m 6.328838,-0.88702 c 3.46939,-0.99345 6.333356,-3.04791 11.940906,-8.56575 l 3.980427,-3.91675 -3.739097,-3.77014 c -5.882209,-5.931016 -9.035228,-8.191036 -12.785314,-9.164246 -2.328107,-0.60419 -5.481538,-0.41182 -7.263939,0.44311 -3.580604,1.71746 -5.615255,5.629116 -5.919652,11.380686 -0.410176,7.75013 2.808216,13.17111 8.358941,14.07958 1.671514,0.27357 3.275448,0.12981 5.427728,-0.48649 z m 33.935602,-5.55198 c -3.73833,-3.6044 -6.79624,-6.72534 -6.79536,-6.93543 0.002,-0.52363 13.120517,-13.287916 13.656487,-13.287916 0.23623,0 1.6834,1.22422 3.21593,2.7205 4.04034,3.944756 10.40134,9.930976 10.65223,10.024606 0.11851,0.0442 0.21546,0.21724 0.21546,0.38448 0,0.34111 -13.57741,13.6472 -13.92547,13.6472 -0.12228,0 -3.28095,-2.94904 -7.019277,-6.55344 z m 18.610477,-5.45347 1.64606,-1.67058 -0.80175,-0.66945 c -0.44096,-0.3682 -3.46299,-3.18902 -6.71561,-6.26848 l -5.91387,-5.599036 -6.503117,6.334546 -6.50313,6.33454 0.47599,0.53215 c 0.2618,0.29268 3.2214,3.18614 6.57689,6.42991 l 6.100887,5.89775 4.99579,-4.82539 c 2.74769,-2.65396 5.73652,-5.57715 6.64186,-6.49596 z m 29.77778,11.74591 c -2.57605,-0.60748 -5.79079,-2.43385 -8.88122,-5.04564 -2.735,-2.31141 -8.1893,-7.78437 -8.1893,-8.21731 0,-0.54973 8.99514,-9.348926 10.80936,-10.573886 7.62454,-5.14811 15.24849,-4.31681 18.23108,1.987856 1.24051,2.62222 1.65863,4.75893 1.68309,8.60097 0.0172,2.6962 -0.0804,3.88488 -0.42568,5.1865 -1.50682,5.68017 -4.82234,8.36201 -10.25904,8.29828 -1.13685,-0.0133 -2.47257,-0.11987 -2.96829,-0.23677 z m 5.78962,-0.56523 c 3.32923,-0.88626 5.77435,-3.50979 6.78417,-7.27919 0.85589,-3.19479 0.75451,-8.01139 -0.23806,-11.31086 -0.68849,-2.28864 -1.26702,-3.35439 -2.58676,-4.765286 -2.69868,-2.88511 -6.62854,-3.48734 -11.31725,-1.73431 -3.51766,1.31519 -5.50338,2.89215 -12.24157,9.721616 l -2.64953,2.68543 2.77014,2.79463 c 7.3496,7.41457 11.84448,10.17319 16.641,10.213 0.86242,0.007 2.13945,-0.13911 2.83786,-0.32503 z M 104.0631,83.942114 c -6.289187,-7.36158 -8.301197,-14.16956 -5.731157,-19.39239 2.387907,-4.8527 8.688017,-6.05162 12.709337,-2.41859 1.97055,1.78027 3.16684,5.29587 2.84444,8.35909 -0.30951,2.94077 -1.68519,6.39548 -3.79596,9.53272 -1.5327,2.27807 -4.07214,5.1865 -4.52848,5.1865 -0.22851,0 -0.90269,-0.5703 -1.49818,-1.26733 z m 2.77191,-0.7237 c 3.14404,-3.68014 5.38854,-7.60387 6.10567,-10.67367 1.7575,-7.52319 -3.29029,-13.48503 -9.78462,-11.55642 -1.90624,0.56609 -4.067087,2.78414 -4.782467,4.90906 -0.62866,1.86732 -0.69336,4.54487 -0.16088,6.65699 0.47363,1.87868 2.444417,5.85185 3.884077,7.83042 1.44837,1.99054 3.23556,4.10095 3.47288,4.10095 0.10044,0 0.66985,-0.5703 1.26534,-1.26733 z"
       id="path569" />
    <path
       style="fill:#0000ff;stroke-width:1.3656"
       d="m 43.57904,70.936297 c -2.688519,14.592474 -0.378812,30.169063 -1.148516,45.139343 0.367892,134.69076 -0.892203,269.40127 1.231611,404.07841 7.057446,98.20713 53.371449,192.18279 124.421045,259.96154 63.54344,65.81247 145.41341,110.06743 228.27832,146.71583 10.20336,-0.53737 19.32072,-7.44489 28.91795,-10.77395 82.28629,-36.83222 160.34173,-86.28468 221.40738,-153.27983 61.30481,-64.91425 99.95794,-150.95778 107.19739,-239.97723 2.14471,-101.96355 0.77616,-203.97381 1.1942,-305.95607 0,-47.70073 0,-95.40145 0,-143.102171 -3.42119,-7.868288 -14.91409,-2.356306 -21.75352,-4.000769 -228.96488,0 -457.92976,0 -686.894645,0 -0.950405,0.398299 -1.90081,0.796598 -2.851215,1.194897 z M 399.09001,131.3399 c 97.1031,0.11291 194.20622,0.22582 291.30932,0.33873 -0.50325,127.32669 0.57995,254.76534 -1.28799,382.01858 -1.84795,42.12032 -14.45631,83.5699 -32.50986,121.6299 -37.72138,76.97177 -104.43127,135.09607 -176.72414,178.86847 -25.91611,15.02492 -52.23379,30.12239 -80.42725,40.37128 -16.32937,-4.11013 -30.79751,-13.89142 -46.01418,-21.02004 C 271.17364,790.23198 193.65588,730.40063 148.01914,648.14797 120.20874,598.51366 106.98257,541.84653 108.55966,485.25895 c -1.09968,-118.08249 -0.62359,-236.17194 -0.77362,-354.25778 97.10133,0.11291 194.20266,0.22582 291.30397,0.33873 z"
       id="path6242"
       transform="scale(0.26458333)" />
    <path
       style="fill:#ffcc00;stroke-width:1.3656"
       d="m 398.90332,196.34173 c -29.74729,-0.67837 -56.18368,23.23824 -61.07841,52.11134 -6.40518,33.46405 12.58815,65.2627 33.60094,89.63518 6.431,4.71719 -3.31913,9.19218 -5.77959,13.41662 -12.32191,12.50038 -24.69292,25.66796 -37.93262,36.84442 -24.7064,-20.85224 -46.36952,-49.42113 -79.83935,-56.11745 -27.01848,-6.7953 -58.76063,2.84078 -73.48878,27.48261 -20.6259,33.22739 -19.76365,79.61625 3.90741,111.08802 18.3895,24.23262 53.19232,30.18874 80.58091,19.27412 27.76555,-9.50293 45.90942,-34.08319 67.90096,-52.09643 16.19075,14.95199 33.067,30.08761 47.59847,46.14753 -17.06728,19.67822 -34.31181,42.19543 -36.78306,69.02126 -0.31471,16.01857 -0.97712,33.35954 9.13761,46.8878 14.19174,22.56427 43.48181,36.47592 69.55751,27.63052 19.99459,-5.70675 35.79438,-22.77124 42.76288,-41.96007 2.44448,-14.3809 2.62373,-29.47948 0.14937,-43.86176 -6.99981,-21.81651 -20.72976,-40.62934 -35.11608,-58.08849 14.95576,-15.64921 30.25503,-31.01398 46.28889,-45.56076 24.44511,21.01906 47.04204,48.15965 80.16473,55.12793 24.71111,5.92813 52.90307,-1.48656 68.72788,-22.15092 19.70701,-23.5319 21.70139,-57.26975 15.38696,-86.14989 -4.92039,-24.69315 -23.35333,-46.85841 -48.3853,-52.66078 -31.65329,-8.39649 -64.20724,7.39658 -86.56242,29.27868 -9.69542,8.71708 -19.2485,17.99309 -28.90244,26.43602 -16.3005,-14.33976 -31.97079,-29.24144 -46.83833,-45.03799 13.27522,-18.93212 28.96047,-37.1825 34.95339,-60.09421 10.30499,-32.27653 -6.27863,-72.18771 -39.40757,-83.15731 -6.6086,-2.30166 -13.60628,-3.47082 -20.60396,-3.44599 z m 0.88017,34.42528 c 18.54495,-0.64216 29.77975,19.01895 26.85049,35.62551 -2.66385,19.74812 -13.9038,37.40169 -27.76001,51.42055 -11.98347,-11.67809 -20.56972,-26.89414 -26.20236,-42.55751 -1.0367,-12.94468 -3.01103,-29.98966 9.27645,-38.95149 4.98954,-3.97986 11.51989,-5.70968 17.83543,-5.53706 z m 172.44646,133.78837 c 19.8478,0.55464 31.49009,22.10955 30.65208,40.07397 0.0578,14.53142 2.13565,30.68326 -7.5623,43.07001 -10.4338,15.12995 -32.06033,14.95539 -47.6545,9.16175 -20.52631,-9.73185 -36.12966,-27.0984 -51.91665,-42.94958 1.23831,-4.72531 7.68547,-8.68496 11.05279,-12.84247 17.06643,-16.87744 36.221,-37.89961 62.56403,-36.463 0.95477,-0.0225 1.90927,-0.0572 2.86455,-0.0507 z m -341.32692,0.64812 c 19.54527,-1.39805 36.81462,12.83615 49.99109,26.12475 7.03402,7.17925 15.48914,14.34146 21.24127,22.03917 -15.87725,15.7375 -31.44696,34.66221 -52.65812,44.22983 -17.03102,7.1201 -40.21809,4.51076 -49.35882,-13.68529 -8.3207,-18.33065 -8.14079,-40.46571 -1.16445,-59.19423 4.7567,-12.48294 17.82086,-21.52853 30.97543,-19.5067 l 0.9416,-0.008 z m 168.15765,3.13661 c 16.56775,14.07064 32.73333,29.08116 47.82252,44.47254 -15.00193,16.07306 -31.31601,32.71599 -48.07323,46.3369 -16.30815,-14.70002 -32.03107,-30.0859 -47.00637,-46.14219 14.82057,-15.84696 30.35171,-30.7951 46.83833,-44.99265 z m 3.6647,144.54244 c 16.1433,16.69779 29.0389,40.63132 22.16426,64.20701 -5.22367,16.03037 -26.35772,25.58178 -40.62114,14.6268 -17.51009,-11.8959 -14.80432,-36.6748 -6.83598,-53.51695 4.94749,-11.12421 12.79802,-20.60901 21.24142,-29.25095 1.35048,1.31137 2.70096,2.62272 4.05144,3.93409 z"
       id="path6318"
       transform="scale(0.26458333)" />
    <path
       style="fill:#ffcc00;stroke-width:1.3656"
       d="m 35.310785,61.377127 c -2.673398,14.596486 -0.327278,30.174033 -1.073046,45.147273 0.43654,141.99335 0.153751,284.04017 1.039472,426.00011 8.85694,67.04405 31.799608,132.67567 70.958999,188.1355 58.4406,84.02865 144.12581,145.17407 234.76384,190.4669 18.9228,8.66967 37.54074,19.00859 57.7539,24.19148 21.61483,-5.53234 41.3456,-16.91409 61.55942,-26.16428 71.48947,-35.37403 138.37408,-81.40583 192.49676,-140.36559 33.34236,-35.47888 60.18182,-77.19533 79.17297,-122.00143 14.9489,-36.40173 26.05895,-74.83011 29.60484,-114.10675 2.86146,-105.76623 2.35955,-211.6041 2.89679,-317.40429 0.0662,-50.36344 0.0996,-100.72692 0.15286,-151.090384 -3.41692,-7.87184 -14.91449,-2.35893 -21.75352,-4.003436 -234.90736,0 -469.81471,0 -704.722071,0 -0.950405,0.398299 -1.900809,0.796598 -2.851214,1.194897 z M 600.83811,73.448779 c 50.09334,0.178219 100.3366,-0.218097 150.33555,0.696134 -0.35045,145.639237 0.70233,291.419367 -0.77828,436.971387 -1.72276,59.58239 -20.16877,118.81702 -49.06759,171.03185 -50.09196,89.20518 -133.16541,154.97801 -221.7448,203.21855 -26.38723,13.69789 -52.79284,27.91228 -81.02107,37.41328 -22.83205,-7.38051 -43.78787,-19.50444 -65.34104,-29.80955 C 276.61125,863.85548 221.60043,829.21077 176.7229,783.18963 144.0495,752.81687 115.78389,717.92976 94.500825,678.60238 70.05019,633.59549 54.165866,584.77817 48.353291,533.88925 45.900939,456.54718 47.067516,378.41764 46.365302,300.75649 46.390372,226.00873 45.449625,150.97784 46.544034,76.399376 50.537999,71.583638 62.742035,75.643792 69.925392,74.276101 246.89624,73.986175 423.86693,73.450137 600.83811,73.448779 Z"
       id="path6435"
       transform="scale(0.26458333)"
       inkscape:export-filename="/home/mydriasis/Desktop/2025-05-belt-plate-designs/heraldic-gold-blue.png"
       inkscape:export-xdpi="600"
       inkscape:export-ydpi="600" />
    <path
       style="fill:#ffffff;stroke-width:1.3656"
       d="m 106.69783,129.72893 c -0.57029,121.70633 -0.0617,243.64355 1.72585,365.42414 -0.45644,29.84503 3.13219,59.67067 11.7034,88.2977 24.25745,82.02611 82.26416,150.2879 150.72929,199.75776 37.91237,27.52631 78.92068,50.85853 121.58704,70.12076 11.12659,4.40659 21.58679,-4.78923 31.65245,-8.26521 79.35467,-38.65339 154.47094,-91.40655 206.08123,-164.0879 30.29489,-43.36551 51.28503,-93.85123 57.97914,-146.44415 3.43907,-64.80496 1.7538,-129.76828 2.54664,-194.63972 0.23404,-69.14139 0.46414,-138.28279 0.69665,-207.42419 -6.63329,-3.48992 -16.74886,-0.51722 -24.71409,-1.50429 -186.26316,-0.062 -372.53342,0.39901 -558.78736,-1.81368 z m 291.66671,67.693 c 28.05747,-0.62885 53.43138,20.51512 59.88351,47.52914 9.00892,28.80178 -6.60348,57.8576 -23.069,80.7238 -3.58518,6.39729 -10.57191,11.84581 -11.94039,18.83933 15.63121,14.39064 30.11731,30.28876 46.81699,43.38967 9.14077,-4.39181 15.91906,-13.5103 23.92193,-19.85715 19.17028,-18.48374 42.50002,-35.06951 69.99621,-36.6996 34.92423,-3.70993 67.62876,25.633 70.50546,60.0801 3.26958,24.79061 3.22305,52.11457 -11.84495,73.39809 -15.30525,24.05685 -47.07494,34.56612 -73.89954,26.71981 -32.04658,-6.9946 -53.05895,-34.58541 -78.15101,-53.28224 -8.47759,4.66942 -14.68149,13.60403 -22.1249,19.97691 -7.99401,8.76599 -18.2422,16.53248 -24.74039,25.97621 13.53389,18.37647 28.83789,37.41643 34.93234,60.08592 0.54203,14.05667 2.1348,28.64283 -1.0162,42.43748 -10.43284,27.27427 -40.84529,48.31127 -70.36285,40.85319 -26.71342,-6.2739 -50.18639,-31.6194 -48.24128,-60.07555 -1.47849,-15.95048 1.69143,-31.91808 9.98133,-45.74919 6.38072,-13.62403 17.0382,-24.69678 24.9614,-37.17874 -2.38145,-8.39005 -11.69722,-13.05647 -17.0027,-19.59003 -10.20721,-9.20656 -19.6621,-19.74419 -30.41442,-28.03778 -24.15938,20.11252 -45.60859,47.86995 -77.80162,55.14125 -25.96402,6.12014 -55.7597,-1.98689 -71.38438,-24.54071 -18.88206,-26.96324 -20.40099,-63.7416 -9.07108,-93.9994 9.32705,-25.33224 35.06063,-43.00534 61.91053,-42.06289 28.17032,-1.56353 52.19838,16.5525 71.95253,34.83217 8.42386,7.19091 15.94371,15.82008 25.40755,21.60415 9.73733,-5.46826 17.00676,-15.32587 25.51564,-22.70445 7.05704,-7.4424 15.20835,-14.13584 21.17067,-22.4749 -6.04589,-12.6685 -17.02751,-22.90866 -23.3725,-35.68685 -14.67465,-24.64391 -19.33155,-58.62834 -1.43228,-83.13064 10.951,-15.86697 29.45859,-26.53734 48.9134,-26.5171 z"
       id="path6550"
       transform="scale(0.26458333)" />
    <path
       style="fill:#ffffff;stroke-width:1.3656"
       d="m 227.87579,364.51271 c -16.22805,-1.05768 -29.31943,12.65485 -32.10751,27.84801 -4.40872,19.66419 -4.19171,43.16022 9.10842,59.4701 16.79069,16.04907 44.42345,10.9173 60.9157,-2.97124 13.46666,-10.91866 26.22124,-23.25747 37.68991,-35.98558 -16.33564,-15.69771 -31.3833,-34.40702 -52.13268,-44.64325 -7.3627,-3.22872 -15.52138,-3.93167 -23.47384,-3.71804 z"
       id="path6589"
       transform="scale(0.26458333)" />
    <path
       style="fill:#ffffff;stroke-width:1.3656"
       d="m 397.77243,367.28924 c -16.18009,14.78893 -32.78739,29.71151 -47.0277,46.16087 15.37894,15.42998 30.54369,31.70597 47.49712,45.4674 8.76089,-2.89899 14.54293,-11.82567 21.64098,-17.52353 8.96631,-9.25796 19.30884,-17.611 26.76832,-28.12524 -4.18374,-8.62579 -13.45484,-14.31785 -19.89069,-21.41955 -9.44146,-8.0295 -18.17234,-18.20562 -28.3399,-24.56167 z"
       id="path6628"
       transform="scale(0.26458333)" />
    <path
       style="fill:#ffffff;stroke-width:1.3656"
       d="m 397.9458,230.18823 c -15.24627,-0.62393 -27.85369,13.75088 -26.52828,28.71345 -2.01069,13.22535 3.20287,25.60987 9.91975,36.66711 4.95032,7.90838 9.46635,17.41532 17.65939,22.31896 8.1841,-5.02913 12.66984,-14.92819 18.12988,-22.67106 9.77571,-16.66859 16.23546,-40.0968 2.42874,-56.52016 -5.1187,-6.51333 -13.58008,-9.03172 -21.60948,-8.5083 z"
       id="path6667"
       transform="scale(0.26458333)" />
    <path
       style="fill:#ffffff;stroke-width:1.3656"
       d="m 565.64469,363.89659 c -22.16169,0.2592 -39.53272,16.9149 -54.24339,31.62933 -5.0253,5.96859 -12.71076,10.7367 -15.78874,17.91619 9.99948,12.95995 22.64895,24.12869 35.42014,34.42261 12.52668,9.44152 28.17541,16.07831 44.08847,12.52774 18.0152,-1.76504 29.37095,-20.63054 28.29511,-37.66672 0.68176,-16.97865 2.07686,-36.68398 -11.36119,-49.56871 -6.66666,-7.67243 -16.51827,-10.29251 -26.4104,-9.26044 z"
       id="path6706"
       transform="scale(0.26458333)" />
    <path
       style="fill:#ffffff;stroke-width:1.3656"
       d="m 397.62573,509.03914 c -15.70844,16.03049 -29.44823,38.00099 -26.74113,61.34512 1.67399,15.169 15.91571,29.98847 32.01148,26.005 18.38381,-2.08568 27.24621,-22.91302 24.03128,-39.46892 -2.59242,-19.03771 -13.93567,-36.30934 -28.35211,-48.36129 z"
       id="path6745"
       transform="scale(0.26458333)" />
  </g>
</svg>
